<svg xmlns="http://www.w3.org/2000/svg" xmlns:xlink="http://www.w3.org/1999/xlink" xmlns:lucid="lucid" width="1197.43" height="1177.96"><g transform="translate(0 0)" lucid:page-tab-id="7ezayB~FQlW7"><path d="M1097.73 774.3l.73 1.78-.73 1.77-1.77.73-1.76-.73-.74-1.77.74-1.77 1.76-.72zm12.04 0l.73 1.78-.73 1.77-1.77.73-1.77-.73-.73-1.77.73-1.77 1.77-.72zm8.48-3.5l.74 1.77-.75 1.76-1.76.74-1.78-.74-.73-1.76.72-1.77 1.77-.73zm3.52-8.5l.73 1.78-.73 1.77-1.77.73-1.77-.73-.73-1.77.73-1.77 1.77-.72zm0-10.06l.73 1.77-.73 1.78-1.77.73-1.77-.72-.73-1.77.73-1.76 1.77-.73zm0-10.07l.73 1.77-.73 1.77-1.77.74-1.77-.73-.73-1.76.73-1.77 1.77-.73zm0-10.07l.73 1.77-.73 1.76-1.77.74-1.77-.74-.73-1.76.73-1.77 1.77-.73zm0-10.07l.73 1.76-.73 1.76-1.77.73-1.77-.74-.73-1.77.73-1.77 1.77-.74zm0-10.07l.73 1.76-.73 1.77-1.77.72-1.77-.73-.73-1.78.73-1.76 1.77-.74zm0-10.08l.73 1.77-.73 1.77-1.77.73-1.77-.73-.73-1.77.73-1.77 1.77-.73zm0-10.07l.73 1.78-.73 1.77-1.77.73-1.77-.73-.73-1.77.73-1.77 1.77-.72zm0-10.06l.73 1.77-.73 1.78-1.77.73-1.77-.72-.73-1.77.73-1.76 1.77-.73zm0-10.07l.73 1.77-.73 1.76-1.77.74-1.77-.74-.73-1.76.73-1.77 1.77-.73zm0-10.07l.73 1.76-.73 1.77-1.77.73-1.77-.73-.73-1.77.73-1.76 1.77-.74zm0-10.08l.73 1.77-.73 1.76-1.77.73-1.77-.74-.73-1.77.73-1.78 1.77-.73zm0-10.07l.73 1.77-.73 1.77-1.77.72-1.77-.73-.73-1.78.73-1.77 1.77-.73zm0-10.07l.73 1.77-.73 1.77-1.77.73-1.77-.73-.73-1.77.73-1.77 1.77-.73zm0-10.07l.73 1.78-.73 1.76-1.77.74-1.77-.74-.73-1.76.73-1.77 1.77-.72zm0-10.06l.73 1.77-.73 1.77-1.77.74-1.77-.73-.73-1.76.73-1.76 1.77-.73zm0-10.07l.73 1.76-.73 1.77-1.77.73-1.77-.73-.73-1.77.73-1.76 1.77-.74zm0-30.22l.73 1.77-.73 1.77-1.77.72-1.77-.73-.73-1.78.73-1.77 1.77-.73zm0-10.07l.73 1.77-.73 1.76-1.77.75-1.77-.74-.73-1.75.73-1.77 1.77-.73zm0-10.07l.73 1.77-.73 1.77-1.77.73-1.77-.73-.73-1.77.73-1.76 1.77-.73zm0-10.07l.73 1.77-.73 1.77-1.77.73-1.77-.73-.73-1.77.73-1.77 1.77-.73zm0-10.07l.73 1.77-.73 1.77-1.77.73-1.77-.73-.73-1.77.73-1.77 1.77-.73zm0-10.07l.73 1.76-.73 1.77-1.77.73-1.77-.73-.73-1.77.73-1.77 1.77-.74zm0-10.08l.73 1.77-.73 1.75-1.77.74-1.77-.75-.73-1.76.73-1.78 1.77-.73zm0-10.07l.73 1.77-.73 1.76-1.77.74-1.77-.74-.73-1.76.73-1.77 1.77-.73zm0-10.07l.73 1.76-.73 1.77-1.77.74-1.77-.73-.73-1.76.73-1.76 1.77-.74zm0-10.08l.73 1.77-.73 1.77-1.77.73-1.77-.73-.73-1.77.73-1.77 1.77-.73zm0-10.07l.73 1.77-.73 1.77-1.77.73-1.77-.73-.73-1.77.73-1.77 1.77-.73zm-3.52-8.48l.74 1.76-.75 1.78-1.76.73-1.78-.72-.73-1.77.72-1.75 1.77-.74zm-8.48-3.52l.73 1.77-.73 1.77-1.77.73-1.77-.73-.73-1.77.73-1.77 1.77-.73zm-9.2 0l.73 1.77-.73 1.77-1.77.73-1.76-.73-.74-1.77.74-1.77 1.76-.73zm-9.2 0l.74 1.77-.72 1.77-1.77.73-1.76-.73-.73-1.77.74-1.77 1.77-.73zm-8.48-3.5l.72 1.76-.73 1.75-1.78.74-1.76-.75-.74-1.76.74-1.78 1.76-.73zm-3.52-8.5l.73 1.77-.72 1.77-1.77.73-1.76-.73-.73-1.77.74-1.77 1.77-.73zm0-9.72l.73 1.78-.72 1.77-1.77.73-1.76-.73-.73-1.77.74-1.77 1.77-.72zm0-9.7l.73 1.76-.72 1.77-1.77.73-1.76-.73-.73-1.77.74-1.77 1.77-.74zm0-9.73l.73 1.77-.72 1.76-1.77.74-1.76-.74-.73-1.76.74-1.77 1.77-.73zm0-9.72l.73 1.76-.72 1.78-1.77.73-1.76-.72-.73-1.77.74-1.75 1.77-.74zm0-9.72l.73 1.76-.72 1.76-1.77.73-1.76-.74-.73-1.77.74-1.77 1.77-.74zm0-9.73l.73 1.77-.72 1.77-1.77.73-1.76-.73-.73-1.77.74-1.77 1.77-.73zm0-9.72l.73 1.77-.72 1.77-1.77.73-1.76-.73-.73-1.77.74-1.77 1.77-.73zm0-9.72l.73 1.77-.72 1.77-1.77.73-1.76-.73-.73-1.77.74-1.77 1.77-.73zm0-9.72l.73 1.77-.72 1.78-1.77.73-1.76-.72-.73-1.77.74-1.76 1.77-.73zm0-9.72l.73 1.77-.72 1.75-1.77.74-1.76-.75-.73-1.76.74-1.78 1.77-.73zm0-9.72l.73 1.77-.72 1.76-1.77.74-1.76-.74-.73-1.76.74-1.77 1.77-.73zm0-9.72l.73 1.76-.72 1.77-1.77.74-1.76-.73-.73-1.76.74-1.76 1.77-.74zm0-9.73l.73 1.77-.72 1.77-1.77.72-1.76-.73-.73-1.78.74-1.77 1.77-.73zm0-9.72l.73 1.77-.72 1.77-1.77.73-1.76-.73-.73-1.77.74-1.77 1.77-.73zm0-9.72l.73 1.78-.72 1.77-1.77.73-1.76-.73-.73-1.77.74-1.77 1.77-.72z" fill="#fa7811"/><path d="M1080.1 302.24h-5v-2.56h5z" fill="#fa7811"/><path d="M1081.43 788.8l-21.52-12.72 21.53-12.72z" fill="#fff"/><path d="M1083.93 793.2L1055 776.07l28.93-17.1zm-19.1-17.12l14.1 8.35v-16.7z" fill="#fa7811"/><use xlink:href="#a" transform="matrix(1,0,0,1,1092.8395061728395,577.0598088587461) translate(0.004999999999999005 14.222222222222223)"/><path d="M372 327.87l.36 2.72 1 2.38 1.58 2.08 2.08 1.6 2.4.98 2.7.36h166.72v4H381.87l-3.5-.46-3.37-1.4-2.9-2.23-2.25-2.9-1.4-3.36-.45-3.5v-26.46h4zm413.4.26l-.44 3.5-1.4 3.37-2.23 2.9-2.9 2.25-3.38 1.4-3.5.45H654.47v-4h116.8l2.74-.36 2.4-1 2.07-1.58 1.6-2.08 1-2.4.34-2.7v-8.2h4z" fill="#1071e5"/><path d="M372 301.73h-4v-2.05h4z" fill="#1071e5"/><path fill="#fff"/><path d="M793.4 311.68h-20v-4h20z" fill="#1071e5"/><path fill="#fff"/><path d="M785.4 319.68h-4v-20h4z" fill="#1071e5"/><path fill="#fff"/><path d="M793.4 321.68h-20v-4h20z" fill="#1071e5"/><use xlink:href="#b" transform="matrix(1,0,0,1,548.8448656670228,329.3333333333333) translate(0.005000000000002558 14.222222222222223)"/><use xlink:href="#c" transform="matrix(1,0,0,1,548.8448656670228,329.3333333333333) translate(90.81981481481483 14.222222222222223)"/><path d="M482 563.7l.36 2.72 1 2.4 1.58 2.07 2.08 1.58 2.4 1 2.7.35H523v4h-31.13l-3.5-.46-3.37-1.4-2.9-2.23-2.25-2.9-1.4-3.38-.45-3.5v-104.6h4zm23.1-228.17l-4 1.08-1.4 1.4-.52 2 .53 2 1.4 1.4 4 1.07v24.1l-.44 3.4-1.35 3.25-2.15 2.82-2.82 2.17-3.26 1.36-3.26.42-2.72.36-2.3.95-1.97 1.5-1.5 2-.96 2.28-.34 2.6v46.35h-4v-46.6l.44-3.4 1.35-3.25 2.16-2.82 2.82-2.17 3.25-1.36 3.26-.42 2.73-.36 2.28-.95 2-1.5 1.52-2 .94-2.28.34-2.6v-20.8l-2.06-.55-2.9-2.9-1.1-4.07 1.1-4.07 2.9-2.9 2.06-.56v-5.34h4z" fill="#fcc438"/><path d="M525 577.83h-2.05v-4H525z" fill="#fcc438"/><path d="M515.83 325.13h-25.45l12.72-21.52z" fill="#fff"/><path d="M519.34 327.13h-32.47l16.23-27.45zm-25.46-4h18.44l-9.22-15.6z" fill="#fcc438"/><use xlink:href="#d" transform="matrix(1,0,0,1,449.38271604938274,438.0343638776504) translate(0.004999999999999005 14.222222222222223)"/><path d="M300 208c0-4.42 3.58-8 8-8h124c4.42 0 8 3.58 8 8v83.68c0 4.42-3.58 8-8 8H308c-4.42 0-8-3.58-8-8z" stroke="#000" stroke-opacity="0" stroke-width="2" fill="#1071e5"/><use xlink:href="#e" transform="matrix(1,0,0,1,305,205.00000000000017) translate(24.124999999999993 36.9)"/><use xlink:href="#f" transform="matrix(1,0,0,1,305,205.00000000000017) translate(28.574999999999996 58.5)"/><path d="M749.35 208c0-4.42 3.6-8 8-8h124c4.42 0 8 3.58 8 8v83.68c0 4.42-3.58 8-8 8h-124c-4.4 0-8-3.58-8-8z" stroke="#000" stroke-opacity="0" stroke-width="2" fill="#1071e5"/><use xlink:href="#g" transform="matrix(1,0,0,1,754.3541526583181,205.00000000000003) translate(34.625 36.9)"/><use xlink:href="#h" transform="matrix(1,0,0,1,754.3541526583181,205.00000000000003) translate(24.124999999999993 58.5)"/><path d="M1035 208c0-4.42 3.58-8 8-8h124c4.42 0 8 3.58 8 8v83.68c0 4.42-3.58 8-8 8h-124c-4.42 0-8-3.58-8-8z" stroke="#000" stroke-opacity="0" stroke-width="2" fill="#834187"/><use xlink:href="#i" transform="matrix(1,0,0,1,1040,205.00000000000003) translate(23.07407407407407 36.72222222222222)"/><use xlink:href="#j" transform="matrix(1,0,0,1,1040,205.00000000000003) translate(27.370370370370367 58.05555555555556)"/><path d="M916.8 251.84h-25.45v-4h25.45zm100.55 0h-27.5v-4h27.5z" fill="#1071e5"/><path d="M891.4 251.84h-2.05v-4h2.06z" fill="#1071e5"/><path d="M1034.1 259.84l-20-10 20-10z" fill="#fff"/><path d="M1035 241.63l-16.42 8.2 16.42 8.22-1.8 3.58-23.57-11.8 23.58-11.78z" fill="#1071e5"/><path fill="#fff"/><path d="M1034.1 251.84h-20v-4h20z" fill="#1071e5"/><use xlink:href="#k" transform="matrix(1,0,0,1,916.8015913888439,239.1733333333334) translate(0.005000000000002558 14.222222222222223)"/><path d="M415.34 162h-33.2l-2.73.36-2.38 1-2.08 1.58-1.6 2.08-.98 2.4-.36 2.7V198h-4v-26.13l.46-3.5 1.4-3.37 2.23-2.9 2.9-2.25 3.36-1.4 3.5-.45h33.48zm110-3.54l3.37 1.4 2.92 2.23 2.23 2.9 1.4 3.36.46 3.5v10.5h-4v-10.23l-.35-2.72-1-2.38-1.58-2.08-2.08-1.6-2.4-.98-2.72-.36h-33.2v-4h33.46z" fill="#1071e5"/><path d="M523.7 199.1l10-20 10 20z" fill="#fff"/><path d="M545.5 198.2l-3.58 1.8-8.2-16.42L525.5 200l-3.58-1.8 11.8-23.57z" fill="#1071e5"/><path fill="#fff"/><path d="M535.7 199.1h-4v-20h4zM372 200h-4v-2.05h4z" fill="#1071e5"/><use xlink:href="#k" transform="matrix(1,0,0,1,415.33563413979954,149.3333333333335) translate(0.005000000000002558 14.222222222222223)"/><path d="M646.33 251.84h-13.6v-4h13.6zm101.02 0h-9.32v-4h9.32z" fill="#1071e5"/><path d="M749.35 251.84h-2.05v-4h2.05zM622.28 235.35l3.6 1.5 3.12 2.38 2.4 3.12 1.48 3.6.5 3.9-.5 3.88-1.5 3.6-2.38 3.12-3.12 2.4-3.6 1.48-3.9.5-3.88-.5-3.6-1.5-3.12-2.38-2.4-3.12-1.48-3.6-.5-3.9.5-3.88 1.5-3.6 2.38-3.12 3.12-2.4 3.6-1.48 3.9-.5z" fill="#1071e5"/><path d="M622.8 233.4l4.1 1.7 3.52 2.7 2.72 3.54 1.7 4.1.57 4.4-.57 4.4-1.7 4.1-2.7 3.53-3.54 2.72-4.1 1.68-4.4.58-4.43-.58-4.08-1.7-3.54-2.7-2.72-3.54-1.7-4.1-.57-4.4.58-4.4 1.7-4.1 2.7-3.53 3.54-2.7 4.08-1.7 4.4-.58zm-7.78 3.9l-3.1 1.3-2.7 2.06-2.08 2.7-1.3 3.1-.43 3.38.45 3.37 1.3 3.12 2.06 2.7 2.7 2.07 3.12 1.28 3.37.44 3.36-.44 3.1-1.3 2.7-2.06 2.08-2.7 1.3-3.1.43-3.38-.44-3.37-1.3-3.1-2.06-2.7-2.7-2.08-3.1-1.3-3.38-.44z" fill="#1071e5"/><use xlink:href="#l" transform="matrix(1,0,0,1,646.3299477826894,239.1733333333334) translate(0.005000000000002558 14.222222222222223)"/><path d="M525 368c0-4.42 3.58-8 8-8h124c4.42 0 8 3.58 8 8v83.68c0 4.42-3.58 8-8 8H533c-4.42 0-8-3.58-8-8z" stroke="#000" stroke-opacity="0" stroke-width="2" fill="#834187"/><use xlink:href="#m" transform="matrix(1,0,0,1,530.0000000000001,365) translate(20.604938271604937 36.72222222222222)"/><use xlink:href="#n" transform="matrix(1,0,0,1,530.0000000000001,365) translate(28.58024691358024 58.05555555555556)"/><path d="M525 557.7c0-4.43 3.58-8 8-8h124c4.42 0 8 3.57 8 8v83.67c0 4.4-3.58 8-8 8H533c-4.42 0-8-3.6-8-8z" stroke="#000" stroke-opacity="0" stroke-width="2" fill="#77818c"/><use xlink:href="#o" transform="matrix(1,0,0,1,530.0000000000002,554.6863763829222) translate(16.679012345679006 47.97222222222222)"/><path d="M232 322.35h-4v-18.8h4zM298 272h-55.87l-2.72.36-2.38 1-2.08 1.58-1.6 2.08-.98 2.4-.36 2.7v.08h-4v-.33l.46-3.5 1.4-3.37 2.23-2.9 2.9-2.25 3.36-1.4 3.5-.45H298z" fill="#1071e5"/><path d="M300 272h-2.05v-4H300z" fill="#1071e5"/><path d="M220 339.1l10-20 10 20z" fill="#fff"/><path d="M241.8 338.2l-3.6 1.8-8.2-16.42-8.2 16.42-3.6-1.8 11.8-23.57z" fill="#1071e5"/><path fill="#fff"/><path d="M232 339.1h-4v-20h4z" fill="#1071e5"/><use xlink:href="#k" transform="matrix(1,0,0,1,193.4814814814814,282.20490662664923) translate(0.005000000000002558 14.222222222222223)"/><path d="M833.68 928.07l-.46 3.5-1.4 3.37-2.23 2.92-2.92 2.23-3.37 1.38-3.5.46H685v-4h134.55l2.72-.35 2.4-1 2.06-1.6 1.6-2.07 1-2.4.35-2.72V680.38h4zm0-269.03h-4V301.68h4z" fill="#1071e5"/><path d="M833.68 301.73h-4v-2.05h4z" fill="#1071e5"/><path fill="#fff"/><path d="M677 949.94h-4v-20h4z" fill="#1071e5"/><path fill="#fff"/><path d="M685 941.94h-20v-4h20z" fill="#1071e5"/><path fill="#fff"/><path d="M687 949.94h-4v-20h4z" fill="#1071e5"/><use xlink:href="#p" transform="matrix(1,0,0,1,766.5895152423795,659.0374049950242) translate(0.0049999999999954525 14.222222222222223)"/><use xlink:href="#q" transform="matrix(1,0,0,1,766.5895152423795,659.0374049950242) translate(73.98030864197531 14.222222222222223)"/><path d="M525 898.1c0-4.4 3.58-8 8-8h124c4.42 0 8 3.6 8 8v83.68c0 4.42-3.58 8-8 8H533c-4.42 0-8-3.58-8-8z" stroke="#000" stroke-opacity="0" stroke-width="2" fill="#1071e5"/><use xlink:href="#r" transform="matrix(1,0,0,1,530.0000000000001,895.1038557062269) translate(29.469135802469133 36.72222222222222)"/><use xlink:href="#s" transform="matrix(1,0,0,1,530.0000000000001,895.1038557062269) translate(30.950617283950614 58.05555555555556)"/><path d="M372 927.8l.36 2.74 1 2.4 1.58 2.06 2.08 1.6 2.4 1 2.7.34H505v4H381.87l-3.5-.46-3.37-1.4-2.9-2.22-2.25-2.92-1.4-3.36-.45-3.5v-253h4zm0-274.05h-4V301.68h4z" fill="#1071e5"/><path d="M372 301.73h-4v-2.05h4z" fill="#1071e5"/><path fill="#fff"/><path d="M517 949.94h-4v-20h4z" fill="#1071e5"/><path fill="#fff"/><path d="M525 941.94h-20v-4h20z" fill="#1071e5"/><path fill="#fff"/><path d="M507 949.94h-4v-20h4z" fill="#1071e5"/><use xlink:href="#p" transform="matrix(1,0,0,1,297.03703703703707,653.7485278249418) translate(0.0049999999999954525 14.222222222222223)"/><use xlink:href="#t" transform="matrix(1,0,0,1,297.03703703703707,653.7485278249418) translate(73.98030864197531 14.222222222222223)"/><path d="M148 512.96c17.67 0 32 17.9 32 40s-14.33 40-32 40H52c-17.67 0-32-17.9-32-40s14.33-40 32-40z" stroke="#000" stroke-opacity="0" stroke-width="2" fill="#ff3d3d"/><use xlink:href="#u" transform="matrix(1,0,0,1,25,517.9609656122185) translate(10.975308641975289 29.53472222222222)"/><use xlink:href="#v" transform="matrix(1,0,0,1,25,517.9609656122185) translate(97.64197530864197 29.53472222222222)"/><use xlink:href="#w" transform="matrix(1,0,0,1,25,517.9609656122185) translate(35.938271604938265 49.090277777777786)"/><path d="M64 492.96h-4V304.9h4zm234-262.88H74.14l-2.73.36-2.38 1-2.07 1.58-1.6 2.08-1 2.4-.34 2.7v43.37h-4v-43.62l.47-3.5 1.4-3.37 2.22-2.9 2.9-2.24 3.37-1.4 3.5-.46H298z" fill="#1071e5"/><path fill="#fff"/><path d="M72 504.96H52v-4h20z" fill="#1071e5"/><path fill="#fff"/><path d="M64 512.96h-4v-20h4z" fill="#1071e5"/><path fill="#fff"/><path d="M72 494.96H52v-4h20zM300 230.08h-2.05v-4H300z" fill="#1071e5"/><use xlink:href="#x" transform="matrix(1,0,0,1,27.487611078679393,283.56738469183136) translate(0.005000000000002558 14.222222222222223)"/><path d="M160 348c0-4.42 3.58-8 8-8h124c4.42 0 8 3.58 8 8v83.68c0 4.42-3.58 8-8 8H168c-4.42 0-8-3.58-8-8z" stroke="#000" stroke-opacity="0" stroke-width="2" fill="#fcc438"/><use xlink:href="#y" transform="matrix(1,0,0,1,164.99999999999994,345) translate(2.9506172839506135 47.97222222222222)"/><use xlink:href="#z" transform="matrix(1,0,0,1,164.99999999999994,345) translate(61.12345679012346 47.97222222222222)"/><path d="M525 734.24c0-4.42 3.58-8 8-8h124c4.42 0 8 3.58 8 8v83.68c0 4.42-3.58 8-8 8H533c-4.42 0-8-3.58-8-8z" stroke="#000" stroke-opacity="0" stroke-width="2" fill="#77818c"/><use xlink:href="#A" transform="matrix(1,0,0,1,530.0000000000002,731.241931224437) translate(33.51851851851852 36.72222222222222)"/><use xlink:href="#B" transform="matrix(1,0,0,1,530.0000000000002,731.241931224437) translate(27.04938271604938 58.05555555555556)"/><path d="M136.86 477.96h-5v-9.14h5zm20.64-85.62h-10.98l-2.63.34-2.27.94-1.98 1.52-1.5 1.97-.95 2.28-.34 2.62v45.48h-5v-45.8l.47-3.6 1.44-3.5 2.32-3 3-2.32 3.5-1.45 3.6-.46h11.3z" fill="#ff3d3d"/><path d="M160 392.34h-2.56v-5H160z" fill="#ff3d3d"/><path d="M149.36 510.46h-30v-30h30z" fill="#fff"/><path d="M151.86 512.96h-35v-35h35zm-30-30v25h25v-25z" fill="#ff3d3d"/><use xlink:href="#C" transform="matrix(1,0,0,1,81.31935525718364,447.48231819172594) translate(0.005000000000002558 14.222222222222223)"/><use xlink:href="#D" transform="matrix(1,0,0,1,81.31935525718364,447.48231819172594) translate(65.09141975308643 14.222222222222223)"/><path d="M160 731.5c0-4.42 3.58-8 8-8h124c4.42 0 8 3.58 8 8v83.68c0 4.42-3.58 8-8 8H168c-4.42 0-8-3.58-8-8z" stroke="#000" stroke-opacity="0" stroke-width="2" fill="#77818c"/><use xlink:href="#E" transform="matrix(1,0,0,1,164.99999999999994,728.4971099059915) translate(27.5432098765432 36.72222222222222)"/><use xlink:href="#F" transform="matrix(1,0,0,1,164.99999999999994,728.4971099059915) translate(77.81481481481481 36.72222222222222)"/><use xlink:href="#G" transform="matrix(1,0,0,1,164.99999999999994,728.4971099059915) translate(6.876543209876537 58.05555555555556)"/><path d="M583.16 854.14l3.6.47 3.5 1.46 3 2.3 2.32 3.03 1.45 3.47.47 3.6v19.13h-5v-18.8l-.34-2.62-.94-2.27-1.52-1.96-1.97-1.52-2.27-.94-2.62-.34H439.67v-5zm-207.98-4.95l2.84 3.18.43 1.76h30.75v5h-34.65l-1.1-4.35-1.2-1.38-1.97-.76h-.05l-2.08.52-1.37 1.2-.76 1.98-.17 2.78h-107.9l-4.15-1.5-2.3-3.88-.12-1.42 4.32-.4.4-.24.1.18h.15l.03.3.8 1.36 1.66.6h102.68l1.03-2.68 3.2-2.84 4.02-1 1.58.1z" fill="#2db539"/><path d="M597.5 890.1h-5v-2.56h5z" fill="#2db539"/><path d="M266.6 849.6h-25.46l12.73-21.5z" fill="#fff"/><path d="M270.98 852.1h-34.22l17.1-28.92zm-25.46-5h16.7l-8.35-14.1z" fill="#2db539"/><use xlink:href="#H" transform="matrix(1,0,0,1,409.1984841807443,845.9738161394426) translate(0.005000000000000782 14.222222222222223)"/><path d="M101.96 761.17l.35 2.63.95 2.27 1.5 1.97 1.98 1.5 2.27.95 2.63.34h45.87v5h-46.2l-3.6-.47-3.5-1.45-3-2.3-2.32-3.03-1.44-3.5-.48-3.6v-89.06h5zm0-110.07h-5v-23.14h5z" fill="#ff3d3d"/><path d="M160 775.84h-2.56v-5H160z" fill="#ff3d3d"/><path d="M114.46 625.46h-30v-30h30z" fill="#fff"/><path d="M116.96 627.96h-35v-35h35zm-30-30v25h25v-25z" fill="#ff3d3d"/><use xlink:href="#I" transform="matrix(1,0,0,1,41.26632484202945,651.1040892399005) translate(0.005000000000002558 14.222222222222223)"/><use xlink:href="#J" transform="matrix(1,0,0,1,41.26632484202945,651.1040892399005) translate(73.98030864197531 14.222222222222223)"/><path d="M524.35 1064.9c0-4.4 3.6-8 8-8h124c4.42 0 8 3.6 8 8v83.7c0 4.4-3.58 8-8 8h-124c-4.4 0-8-3.6-8-8z" stroke="#000" stroke-opacity="0" stroke-width="2" fill="#2db539"/><use xlink:href="#K" transform="matrix(1,0,0,1,529.3541526583181,1061.9130967032509) translate(41.888888888888886 47.97222222222222)"/><path d="M596.85 1054.4h-5v-5.44h5zm.65-30.88l-.65 1.56v2.54h-5v-4.45l.65-1.56v-2.9h5z" fill="#2db539"/><path d="M596.85 1056.9h-5v-2.55h5z" fill="#2db539"/><path d="M607.73 1016.2h-25.46L595 994.7z" fill="#fff"/><path d="M612.1 1018.7h-34.2L595 989.8zm-25.44-5h16.68L595 999.6z" fill="#2db539"/><use xlink:href="#H" transform="matrix(1,0,0,1,579.1195847570835,1027.6233322450425) translate(0.005000000000000782 14.222222222222223)"/><path d="M207.44 1094.6l.35 2.62.93 2.26 1.5 1.98 1.98 1.5 2.28.95 2.63.35h126.53v5H216.78l-3.6-.47-3.5-1.44-3-2.32-2.32-3-1.44-3.5-.48-3.6V825.68h5zm287.98 9.65v5h-98.55v-5z" fill="#834187"/><path d="M207.44 825.74h-5v-2.56h5z" fill="#834187"/><path d="M519.44 1106.75l-21.52 12.73v-25.45z" fill="#fff"/><path d="M524.35 1106.75l-28.93 17.1v-34.2zm-23.93 8.35l14.1-8.35-14.1-8.34z" fill="#834187"/><use xlink:href="#L" transform="matrix(1,0,0,1,343.6339338655563,1096.086430036584) translate(0.004999999999999005 14.222222222222223)"/><path d="M915 734.24c0-4.42 3.58-8 8-8h124c4.42 0 8 3.58 8 8v83.68c0 4.42-3.58 8-8 8H923c-4.42 0-8-3.58-8-8z" stroke="#000" stroke-opacity="0" stroke-width="2" fill="#fa7811"/><use xlink:href="#M" transform="matrix(1,0,0,1,920,731.241931224437) translate(9.765432098765423 47.97222222222222)"/><use xlink:href="#N" transform="matrix(1,0,0,1,920,731.241931224437) translate(63 47.97222222222222)"/><path d="M987 462.18v262.06h-4v-261.8l-.2-1.47h4.04zm-148.35-15.94l.56 2.07h17.24v4h-20.3l-1.07-3.98-1.4-1.4-2-.54-2 .54-1.38 1.4-1.1 4H692.46v-4h131.7l.55-2.08 2.9-2.9 4.08-1.1 4.06 1.1z" fill="#fa7811"/><path d="M987 726.24h-4v-2.05h4z" fill="#fa7811"/><path d="M690.45 463.03l-21.52-12.72 21.52-12.72z" fill="#fff"/><path d="M692.45 466.54L665 450.3l27.45-16.23zm-19.6-16.23l15.6 9.23V441.1z" fill="#fa7811"/><use xlink:href="#O" transform="matrix(1,0,0,1,856.4370483242562,439.64037382040124) translate(0.0049999999999954525 14.222222222222223)"/><use xlink:href="#P" transform="matrix(1,0,0,1,856.4370483242562,439.64037382040124) translate(44.30129629629629 14.222222222222223)"/><use xlink:href="#Q" transform="matrix(1,0,0,1,856.4370483242562,439.64037382040124) translate(68.99265432098765 14.222222222222223)"/><path d="M952.77 721.97l.73 1.77-.73 1.77-1.77.74-1.77-.73-.73-1.76.73-1.77 1.77-.73zm0-9.94l.73 1.77-.73 1.77-1.77.73-1.77-.73-.73-1.77.73-1.77 1.77-.73zm0-9.94l.73 1.76-.73 1.77-1.77.73-1.77-.73-.73-1.77.73-1.77 1.77-.74zm0-9.95l.73 1.77-.73 1.77-1.77.72-1.77-.73-.73-1.78.73-1.77 1.77-.73zm0-9.94l.73 1.78-.73 1.77-1.77.73-1.77-.73-.73-1.77.73-1.77 1.77-.72zm0-9.93l.73 1.77-.73 1.77-1.77.74-1.77-.73-.73-1.76.73-1.77 1.77-.73zm0-9.94l.73 1.77-.73 1.77-1.77.73-1.77-.73-.73-1.77.73-1.77 1.77-.73zm0-9.94l.73 1.76-.73 1.77-1.77.73-1.77-.73-.73-1.77.73-1.77 1.77-.74zm0-9.95l.73 1.77-.73 1.77-1.77.72-1.77-.73-.73-1.78.73-1.77 1.77-.73zm0-9.94l.73 1.78-.73 1.77-1.77.73-1.77-.73-.73-1.77.73-1.77 1.77-.72zm0-9.93l.73 1.77-.73 1.76-1.77.74-1.77-.74-.73-1.76.73-1.77 1.77-.73zm0-9.94l.73 1.77-.73 1.76-1.77.74-1.77-.74-.73-1.76.73-1.77 1.77-.73zm0-9.94l.73 1.76-.73 1.76-1.77.74-1.77-.74-.73-1.76.73-1.77 1.77-.74zm0-9.95l.73 1.77-.73 1.76-1.77.74-1.77-.74-.73-1.76.73-1.77 1.77-.73zm-3.52-8.5l.74 1.78-.75 1.77-1.76.73-1.78-.73-.73-1.77.72-1.77 1.77-.73zm-243.46-3.5l.73 1.77-.74 1.76-1.77.74-1.77-.74-.73-1.76.73-1.77 1.77-.73zm10.1 0l.72 1.77-.73 1.76-1.78.74-1.77-.74-.73-1.76.73-1.77 1.77-.73zm10.1 0l.72 1.77-.73 1.76-1.78.74-1.77-.74-.73-1.76.73-1.77 1.77-.73zm10.08 0l.73 1.77-.72 1.76-1.77.74-1.75-.74-.74-1.76.75-1.77 1.76-.73zm10.1 0l.73 1.77-.72 1.76-1.77.74-1.76-.74-.73-1.76.74-1.77 1.77-.73zm10.1 0l.72 1.77-.73 1.76-1.77.74-1.76-.74-.74-1.76.74-1.77 1.76-.73zm10.1 0l.72 1.77-.73 1.76-1.77.74-1.77-.74-.73-1.76.73-1.77 1.77-.73zm10.08 0l.74 1.77-.74 1.76-1.76.74-1.77-.74-.73-1.76.73-1.77 1.77-.73zm10.1 0l.73 1.77-.74 1.76-1.77.74-1.78-.74-.73-1.76.72-1.77 1.77-.73zm10.1 0l.73 1.77-.74 1.76-1.77.74-1.78-.74-.73-1.76.72-1.77 1.77-.73zm10.1 0l.72 1.77-.73 1.76-1.77.74-1.76-.74-.74-1.76.74-1.77 1.76-.73zm10.1 0l.72 1.77-.73 1.76-1.77.74-1.77-.74-.72-1.76.73-1.77 1.78-.73zm10.08 0l.74 1.77-.74 1.76-1.76.74-1.77-.74-.72-1.76.73-1.77 1.78-.73zm13 0l.74 1.77-.74 1.76-1.76.74-1.77-.74-.72-1.76.73-1.77 1.78-.73zm10.1 0l.72 1.77-.73 1.76-1.77.74-1.77-.74-.74-1.76.73-1.77 1.76-.73zm60.48 0l.73 1.77-.73 1.76-1.77.74-1.73-.72v-3.57l1.73-.7zm10.08 0l.74 1.77-.74 1.76-1.76.74-1.77-.74-.73-1.76.73-1.77 1.77-.73zm10.1 0l.72 1.77-.73 1.76-1.78.74-1.77-.74-.73-1.76.73-1.77 1.77-.73zm10.07 0l.73 1.77-.73 1.76-1.77.74-1.77-.74-.73-1.76.73-1.77 1.77-.73zm-107.33-6.5l.74 1.77-.74 1.76-1.76.74-1.77-.74-.72-1.76.73-1.77 1.78-.73z" fill="#fa7811"/><path d="M953.5 726.24h-5v-2.56h5z" fill="#fa7811"/><path d="M691.43 595.24l-21.52-12.72 21.53-12.73z" fill="#fff"/><path d="M693.93 599.62L665 582.52l28.93-17.1zm-19.1-17.1l14.1 8.34v-16.7z" fill="#fa7811"/><use xlink:href="#a" transform="matrix(1,0,0,1,852.7026130659078,571.8488584025605) translate(0.004999999999999005 14.222222222222223)"/><path d="M706.07 1105l.73 1.75-.73 1.77-1.77.73-1.77-.73-.73-1.77.73-1.76 1.77-.75zm11.02 0l.72 1.75-.73 1.77-1.78.73-1.77-.73-.73-1.77.73-1.76 1.77-.75zm11 0l.74 1.75-.74 1.77-1.76.73-1.77-.73-.73-1.77.73-1.76 1.77-.75zm11.02 0l.73 1.75-.73 1.77-1.77.73-1.76-.73-.75-1.77.74-1.76 1.75-.75zm8.5-3.53l.72 1.77-.73 1.77-1.76.74-1.77-.73-.73-1.76.73-1.77 1.77-.73zm3.5-8.48l.73 1.75-.73 1.77-1.77.73-1.76-.73-.75-1.77.74-1.76 1.75-.75zm0-9.9l.73 1.77-.73 1.76-1.77.74-1.76-.74-.75-1.76.74-1.77 1.75-.73zm0-9.9l.73 1.78-.73 1.77-1.77.73-1.76-.73-.75-1.77.74-1.77 1.75-.72zm0-9.88l.73 1.77-.73 1.76-1.77.73-1.76-.74-.75-1.77.74-1.78 1.75-.73zm0-9.88l.73 1.76-.73 1.77-1.77.73-1.76-.73-.75-1.77.74-1.76 1.75-.74zm0-9.9l.73 1.78-.73 1.76-1.77.74-1.76-.74-.75-1.76.74-1.77 1.75-.73zm0-9.88l.73 1.77-.73 1.77-1.77.73-1.76-.73-.75-1.77.74-1.77 1.75-.73zm0-9.9l.73 1.78-.73 1.77-1.77.74-1.76-.73-.75-1.76.74-1.77 1.75-.73zm0-9.87l.73 1.75-.73 1.77-1.77.73-1.76-.73-.75-1.77.74-1.76 1.75-.75zm0-9.9l.73 1.77-.73 1.77-1.77.73-1.76-.73-.75-1.77.74-1.77 1.75-.73zm0-9.9l.73 1.78-.73 1.77-1.77.73-1.76-.73-.75-1.77.74-1.77 1.75-.72zm0-9.87l.73 1.76-.73 1.76-1.77.73-1.76-.74-.75-1.77.74-1.77 1.75-.74zm0-9.9l.73 1.78-.73 1.77-1.77.74-1.76-.73-.75-1.76.74-1.76 1.75-.73zm0-9.88l.73 1.77-.73 1.77-1.77.72-1.76-.73-.75-1.78.74-1.77 1.75-.73zm0-9.9l.73 1.78-.73 1.77-1.77.73-1.76-.73-.75-1.77.74-1.77 1.75-.73zm0-9.87l.73 1.76-.73 1.77-1.77.74-1.76-.73-.75-1.76.74-1.76 1.75-.74zm-6.5-6.5l.73 1.76-.73 1.77-1.77.74-1.76-.73-.75-1.76.74-1.76 1.75-.74zm6.5-6.5l.73 1.76-.73 1.77-1.77.74-1.76-.73-.75-1.76.74-1.76 1.75-.74zm0-10.16l.73 1.77-.73 1.76-1.77.73-1.76-.74-.75-1.77.74-1.78 1.75-.73zm0-10.15l.73 1.77-.73 1.76-1.77.74-1.76-.74-.75-1.76.74-1.77 1.75-.73zm0-10.16l.73 1.78-.73 1.77-1.77.73-1.76-.73-.75-1.77.74-1.77 1.75-.72zm0-10.14l.73 1.77-.73 1.76-1.77.73-1.76-.74-.75-1.77.74-1.77 1.75-.73zm0-10.16l.73 1.77-.73 1.77-1.77.73-1.76-.73-.75-1.77.74-1.77 1.75-.73zm0-10.15l.73 1.77-.73 1.77-1.77.72-1.76-.73-.75-1.78.74-1.77 1.75-.73zm0-10.15l.73 1.76-.73 1.77-1.77.73-1.76-.73-.75-1.77.74-1.76 1.75-.74zm0-10.16l.73 1.77-.73 1.78-1.77.73-1.76-.72-.75-1.77.74-1.76 1.75-.73zm0-10.15l.73 1.76-.73 1.76-1.77.74-1.76-.74-.75-1.76.74-1.77 1.75-.74zm0-10.17l.73 1.77-.73 1.77-1.77.73-1.76-.73-.75-1.77.74-1.77 1.75-.73zm0-10.15l.73 1.77-.73 1.76-1.77.75-1.76-.74-.75-1.75.74-1.77 1.75-.73zm0-10.16l.73 1.77-.73 1.76-1.77.73-1.76-.74-.75-1.77.74-1.78 1.75-.73zm0-10.15l.73 1.77-.73 1.77-1.77.74-1.76-.73-.75-1.76.74-1.77 1.75-.73zm0-6.62l-1.77.73-1.76-.73-.13-.3h3.77zm0-23.84l.73 1.78-.18.45h-4.63l-.2-.45.75-1.77 1.75-.72zm0-10.15l.73 1.77-.73 1.77-1.77.72-1.76-.73-.75-1.78.74-1.77 1.75-.73zm0-10.15l.73 1.77-.73 1.76-1.77.74-1.76-.74-.75-1.76.74-1.77 1.75-.73zm0-10.16l.73 1.77-.73 1.78-1.77.73-1.76-.72-.75-1.77.74-1.76 1.75-.73zm0-10.15l.73 1.76-.73 1.77-1.77.73-1.76-.73-.75-1.77.74-1.77 1.75-.74zm0-10.16l.73 1.76-.73 1.77-1.77.73-1.76-.73-.75-1.77.74-1.76 1.75-.74zm0-10.16l.73 1.77-.73 1.77-1.77.73-1.76-.73-.75-1.77.74-1.77 1.75-.73zm0-10.15l.73 1.77-.73 1.76-1.77.74-1.76-.74-.75-1.76.74-1.77 1.75-.73zm0-10.16l.73 1.77-.73 1.77-1.77.74-1.76-.73-.75-1.76.74-1.77 1.75-.73zm0-10.15l.73 1.77-.73 1.75-1.77.74-1.76-.75-.75-1.76.74-1.78 1.75-.73zm0-10.16l.73 1.77-.73 1.77-1.77.73-1.76-.73-.75-1.77.74-1.77 1.75-.73zm0-10.15l.73 1.78-.73 1.77-1.77.73-1.76-.73-.75-1.77.74-1.77 1.75-.72zm0-10.14l.73 1.76-.73 1.77-1.77.72-1.76-.73-.75-1.78.74-1.76 1.75-.74zm0-10.16l.73 1.77-.73 1.77-1.77.73-1.76-.73-.75-1.77.74-1.77 1.75-.73zm0-10.15l.73 1.77-.73 1.76-1.77.74-1.76-.74-.75-1.76.74-1.77 1.75-.73zm-3.5-8.5l.72 1.78-.73 1.77-1.76.73-1.77-.73-.73-1.77.73-1.77 1.77-.73zm-8.5-3.5l.73 1.77-.73 1.76-1.77.74-1.76-.74-.75-1.76.74-1.77 1.75-.73zm-9.98 0l.73 1.77-.73 1.76-1.77.74-1.76-.74-.73-1.76.74-1.77 1.77-.73zm-9.98 0l.74 1.77-.74 1.76-1.76.74-1.77-.74-.73-1.76.73-1.77 1.77-.73zm-9.98 0l.74 1.77-.74 1.76-1.76.74-1.77-.74-.73-1.76.73-1.77 1.77-.73zm-9.97 0l.74 1.77-.73 1.76-1.76.74-1.77-.74-.73-1.76.73-1.77 1.77-.73zm-9.97 0l.73 1.77-.73 1.76-1.77.74-1.77-.74-.74-1.76.73-1.77 1.76-.73zm-9.98 0l.73 1.77-.73 1.76-1.77.74-1.77-.74-.72-1.76.73-1.77 1.78-.73zm-9.98 0l.73 1.77-.73 1.76-1.77.74-1.77-.74-.73-1.76.73-1.77 1.77-.73z" fill="#fa7811"/><path d="M667.56 619.32H665v-5h2.56z" fill="#fa7811"/><path d="M690.78 1119.48l-21.5-12.73 21.5-12.72z" fill="#fff"/><path d="M693.28 1123.86l-28.93-17.1 28.93-17.12zm-19.1-17.1l14.1 8.34v-16.7z" fill="#fa7811"/><use xlink:href="#a" transform="matrix(1,0,0,1,722.1936588311576,771.4260448592763) translate(0.004999999999999005 14.222222222222223)"/><path d="M1006.9 328l3.5.46 3.37 1.4 2.9 2.23 2.25 2.9 1.4 3.36.45 3.5V708.6h-4V342.12l-.36-2.72-.98-2.38-1.6-2.08-2.07-1.6-2.4-.98-2.7-.36H990.5v-4zm-143.78-7.4l1 2.38 1.6 2.08 2.06 1.6 2.4.98 2.72.36h44.56v4h-44.83l-3.5-.46-3.37-1.4-2.9-2.23-2.24-2.9-1.4-3.36-.46-3.5v-16.46h4v16.2z" fill="#1071e5"/><path d="M862.76 301.73h-4v-2.05h4z" fill="#1071e5"/><path d="M1008.77 725.35l10-20 10 20z" fill="#fff"/><path d="M1030.56 724.45l-3.58 1.8-8.2-16.43-8.22 16.42-3.58-1.8 11.8-23.56z" fill="#1071e5"/><path fill="#fff"/><path d="M1020.77 725.35h-4v-20h4z" fill="#1071e5"/><use xlink:href="#k" transform="matrix(1,0,0,1,917.4627010351043,319.3333333333333) translate(0.005000000000002558 14.222222222222223)"/><path d="M232 703.5h-4v-29.74h4zm110.92-175.37l-.46 3.5-1.4 3.37-2.23 2.9-2.9 2.25-3.38 1.4-3.5.45h-86.92l-2.72.36-2.38 1-2.08 1.58-1.6 2.08-.98 2.4-.36 2.7v100.3h-4V551.88l.46-3.5 1.4-3.37 2.23-2.9 2.9-2.25 3.36-1.4 3.5-.45h86.93l2.7-.36 2.4-1 2.08-1.58 1.6-2.08.98-2.4.36-2.7v-226.2h4z" fill="#1071e5"/><path d="M342.92 301.73h-4v-2.05h4z" fill="#1071e5"/><path fill="#fff"/><path d="M240 715.5h-20v-4h20z" fill="#1071e5"/><path fill="#fff"/><path d="M232 723.5h-4v-20h4z" fill="#1071e5"/><path fill="#fff"/><path d="M240 705.5h-20v-4h20z" fill="#1071e5"/><use xlink:href="#x" transform="matrix(1,0,0,1,195.4814814814814,652.4263085324211) translate(0.005000000000002558 14.222222222222223)"/><path d="M487.8 206.97c2.15-3.85 7.5-6.97 11.9-6.97h68c4.43 0 9.76 3.12 11.93 6.97l20.16 35.9c2.15 3.85 2.15 10.1 0 13.94l-20.17 35.9c-2.17 3.86-7.5 6.98-11.92 6.98h-68c-4.4 0-9.75-3.12-11.9-6.97l-20.17-35.9c-2.17-3.84-2.17-10.08 0-13.93z" stroke="#000" stroke-opacity="0" stroke-width="2" fill="#1071e5"/><use xlink:href="#R" transform="matrix(1,0,0,1,468.70830531663614,205.00000000000017) translate(22.57999999999999 36.9)"/><use xlink:href="#S" transform="matrix(1,0,0,1,468.70830531663614,205.00000000000017) translate(27.57999999999999 58.5)"/><path d="M406.74 788.1H302v-4h104.74zm90.8 0H446.1v-4h51.45zM406.74 796.1H302v-4h104.74zm90.8 0H446.1v-4h51.45z" fill="#2db539"/><path d="M302.05 788.1H300v-4h2.05zM302.05 796.1H300v-4h2.05z" fill="#2db539"/><path d="M521.07 790.1l-21.52 12.73v-25.45z" fill="#fff"/><path d="M525 790.1l-27.45 16.24v-32.47zm-23.45 9.22l15.6-9.22-15.6-9.22z" fill="#2db539"/><use xlink:href="#T" transform="matrix(1,0,0,1,406.7357094922189,779.4372873282967) translate(0.004999999999999005 14.222222222222223)"/><path d="M392.7 757.76h-65.25v-4h65.26zm130.3 0h-68.17v-4H523zM392.7 749.76h-65.25v-4h65.26zm130.3 0h-68.17v-4H523z" fill="#834187"/><path d="M525 757.76h-2.05v-4H525zM525 749.76h-2.05v-4H525z" fill="#834187"/><path d="M325.45 764.5l-21.52-12.74 21.52-12.73z" fill="#fff"/><path d="M327.45 768L300 751.75l27.45-16.23zm-19.6-16.24l15.6 9.22v-18.44z" fill="#834187"/><use xlink:href="#U" transform="matrix(1,0,0,1,392.7095548577949,741.0929278451989) translate(0.004999999999999005 14.222222222222223)"/><path d="M418.5 602.64l.5 2.53 1.28 1.9 1.9 1.26 2.52.5h72.85v4H424.3l-3.7-.74-3.2-2.16-2.15-3.2-.75-3.7V459.56h4zm-13.33-218.2l4.33 1.8 3.74 2.86 2.87 3.74 1.8 4.33.6 4.54v36.53h-4v-36.26l-.5-3.76-1.38-3.34-2.23-2.9-2.92-2.24-3.35-1.4-3.76-.48H302v-4h98.63z" fill="#fcc438"/><path d="M410.5 602.7l.5 3.77 1.38 3.35 2.23 2.9 2.92 2.24 3.35 1.4 3.76.48h72.92v4h-73.18l-4.54-.6-4.33-1.8-3.74-2.86-2.87-3.74-1.8-4.33-.6-4.53v-143.4h4zm-6.1-210.1l3.2 2.14 2.15 3.2.75 3.7v36.6h-4v-36.2l-.5-2.53-1.28-1.88-1.9-1.27-2.52-.5H302v-4h98.7zM302.05 387.84H300v-4h2.05z" fill="#fcc438"/><path d="M302.05 395.84H300v-4h2.05z" fill="#fcc438"/><path d="M521.07 614.84l-21.52 12.73V602.1z" fill="#fff"/><path d="M525 614.84l-27.45 16.23V598.6zm-23.45 9.22l15.6-9.22-15.6-9.22z" fill="#fcc438"/><use xlink:href="#T" transform="matrix(1,0,0,1,392.82098765432113,438.22678314408165) translate(0.004999999999999005 14.222222222222223)"/><path d="M762.75 162h-193.3l-2.73.36-2.4 1-2.06 1.58-1.6 2.08-1 2.4-.34 2.7V198h-4v-26.13l.45-3.5 1.4-3.37 2.23-2.9 2.92-2.25 3.36-1.4 3.5-.45h193.57zm271.9-3.54l3.35 1.4 2.9 2.23 2.25 2.9 1.4 3.36.45 3.5v24.5h-4v-24.23l-.36-2.72-1-2.38-1.58-2.08-2.08-1.6-2.4-.98-2.7-.36H886.05v-4h145.07z" fill="#fcc438"/><path d="M559.32 200h-4v-2.05h4zM1054.9 179.87L1043 200l-11.9-20.13 3.44-2.03 8.46 14.3 8.46-14.3z" fill="#fcc438"/><use xlink:href="#V" transform="matrix(1,0,0,1,762.7494078989483,149.3333333333335) translate(0.005000000000002558 14.222222222222223)"/><use xlink:href="#W" transform="matrix(1,0,0,1,762.7494078989483,149.3333333333335) translate(87.85685185185184 14.222222222222223)"/><path d="M569.23 522.24h-4v-33.6h4zm0-54.92h-4v-5.64h4z" fill="#834187"/><path d="M569.23 461.73h-4v-2.05h4z" fill="#834187"/><path d="M567.23 545.76l-12.72-21.52h25.46z" fill="#fff"/><path d="M567.23 549.7L551 522.23h32.46zM558 526.23l9.23 15.6 9.22-15.6z" fill="#834187"/><use xlink:href="#L" transform="matrix(1,0,0,1,540.614792540726,467.31560757953514) translate(0.004999999999999005 14.222222222222223)"/><path d="M626.1 547.7h-4v-4.84h4zm0-26.17h-4v-34.4h4z" fill="#2db539"/><path d="M626.1 549.7h-4v-2.06h4z" fill="#2db539"/><path d="M636.8 485.13h-25.44l12.73-21.52z" fill="#fff"/><path d="M640.32 487.13h-32.46l16.23-27.45zm-25.45-4h18.44l-9.2-15.6z" fill="#2db539"/><use xlink:href="#H" transform="matrix(1,0,0,1,608.8529381684951,521.5265985728804) translate(0.005000000000000782 14.222222222222223)"/><path d="M749.35 28c0-4.42 3.6-8 8-8h124c4.42 0 8 3.58 8 8v83.68c0 4.42-3.58 8-8 8h-124c-4.4 0-8-3.58-8-8z" stroke="#d1bcd2" stroke-width="8" fill="#834187"/><use xlink:href="#X" transform="matrix(1,0,0,1,754.3541526583181,25) translate(10.432098765432094 47.97222222222222)"/><use xlink:href="#Y" transform="matrix(1,0,0,1,754.3541526583181,25) translate(67.32098765432099 47.97222222222222)"/><path d="M232 497.87l.36 2.72 1 2.38 1.58 2.08 2.08 1.6 2.4.98 2.7.36h91.27l.54-2.07 2.9-2.9 4.08-1.1 4.06 1.1 2.9 2.9.57 2.07h14.02l.56-2.07 2.9-2.9 4.07-1.1 4.07 1.1 2.9 2.9.56 2.07h23.27l.3-1.8 1.7-3.3 2.6-2.6 3.3-1.7 3.8-.63 3.8.62 3.3 1.7 2.6 2.6 1.7 3.3.3 1.8h48.27l.56-2.07 2.9-2.9 4.07-1.1 4.07 1.1 2.9 2.9.56 2.07h72.17l.56-2.07 2.9-2.9 4.07-1.1 4.07 1.1 2.9 2.9.56 2.07h41.8l.56-2.07 2.9-2.9 4.07-1.1 4.05 1.1 2.9 2.9.57 2.07h45.1v4h-48.16l-1.08-4-1.4-1.4-2-.53-1.98.54-1.4 1.4-1.08 4H571.7l-1.08-4-1.4-1.4-2-.53-1.98.54-1.4 1.4-1.08 4h-78.3l-1.07-4-1.4-1.4-2-.53-2 .54-1.4 1.4-1.07 4H420.8l-.73-4.53-1.13-2.18-1.73-1.74-2.17-1.13-2.53-.4-2.53.4-2.18 1.13-1.74 1.73-1.13 2.17-.73 4.53h-29.73l-1.08-4-1.4-1.4-2-.53-2 .54-1.4 1.4-1.07 4H345.4l-1.1-4-1.4-1.4-1.98-.53-2 .54-1.4 1.4-1.07 4h-94.58l-3.5-.46-3.37-1.4-2.9-2.23-2.25-2.9-1.4-3.36-.45-3.5v-31h4zm821.16.26l-.45 3.5-1.4 3.37-2.22 2.9-2.92 2.25-3.36 1.4-3.5.45h-16.06l-1.08-4-1.4-1.4-2-.53-1.98.54-1.4 1.4-1.08 4h-24.83l-1.08-4-1.4-1.4-2-.53-2 .54-1.4 1.4-1.07 4H836.15l-1.08-4-1.4-1.4-2-.53-2 .54-1.38 1.4-1.1 4h-16.4v-4h13.35l.55-2.07 2.9-2.9 4.08-1.1 4.06 1.1 2.9 2.9.57 2.07h138.27l.56-2.07 2.9-2.9 4.07-1.1 4.07 1.1 2.9 2.9.56 2.07h18.7l.57-2.07 2.9-2.9 4.07-1.1 4.07 1.1 2.9 2.9.56 2.07h12.73l2.73-.36 2.4-1 2.06-1.58 1.6-2.08 1-2.4.34-2.7v-196.2h4z" fill="#fcc438"/><path d="M242.73 465.13h-25.46L230 443.6z" fill="#fff"/><path d="M246.23 467.13h-32.46L230 439.68zm-25.45-4h18.44l-9.22-15.6zM1053.16 301.73h-4v-2.05h4z" fill="#fcc438"/><use xlink:href="#Z" transform="matrix(1,0,0,1,676.7113150058082,499.3333333333333) translate(0.0049999999999954525 14.222222222222223)"/><use xlink:href="#P" transform="matrix(1,0,0,1,676.7113150058082,499.3333333333333) translate(64.05438271604939 14.222222222222223)"/><use xlink:href="#aa" transform="matrix(1,0,0,1,676.7113150058082,499.3333333333333) translate(88.74574074074076 14.222222222222223)"/><path d="M628.73 724.24h-4v-10.8h4zm0-32.15h-4v-15.3h4z" fill="#2db539"/><path d="M628.73 726.24h-4v-2.05h4z" fill="#2db539"/><path d="M639.46 674.8H614l12.73-21.5z" fill="#fff"/><path d="M642.96 676.8H610.5l16.23-27.43zm-25.45-4h18.45l-9.22-15.58z" fill="#2db539"/><use xlink:href="#H" transform="matrix(1,0,0,1,611.4973767535363,692.0928873080395) translate(0.005000000000000782 14.222222222222223)"/><path d="M835.74 385.16l2.9 2.9.57 2.07h39.5v4h-42.55l-1.08-4-1.4-1.4-2-.53-2 .54-1.38 1.4-1.1 4H667v-4h157.15l.55-2.08 2.9-2.9 4.08-1.1zm291.47-4.9l-.45 3.5-1.4 3.37-2.23 2.9-2.9 2.25-3.38 1.4-3.5.45h-31.1l-.16-2.4-.83-2.14-1.55-1.4-2.28-.56-.2.02-2.15.83-1.38 1.53-1.03 4.1h-17.04l-1.08-4-1.4-1.4-2-.53-1.98.54-1.4 1.4-1.07 4h-23.46l-1.08-4-1.4-1.4-2-.54-1.98.54-1.4 1.4-1.08 4h-69.48v-4h66.42l.56-2.08 2.9-2.9 4.07-1.1 4.07 1.1 2.9 2.9.56 2.07h17.33l.56-2.07 2.9-2.9 4.06-1.1 4.07 1.1 2.9 2.9.57 2.07h10.85l.5-2.02 2.67-3 3.64-1.4 1.43-.1 3.83.97 3 2.67 1.12 2.9h27.33l2.72-.37 2.4-1 2.07-1.58 1.6-2.1.98-2.38.36-2.72v-52.87h4z" fill="#2db539"/><path d="M667.05 394.13H665v-4h2.05z" fill="#2db539"/><path d="M1137.93 325.13h-25.45l12.73-21.52z" fill="#fff"/><path d="M1141.44 327.13h-32.46l16.23-27.45zm-25.45-4h18.43l-9.22-15.6z" fill="#2db539"/><use xlink:href="#ab" transform="matrix(1,0,0,1,878.6956537906593,381.4627249494942) translate(0.005000000000002558 14.222222222222223)"/><path d="M1151.22 36.4l3.37 1.4 2.9 2.23 2.23 2.9 1.4 3.38.46 3.5V198h-4V50.07l-.37-2.72-1-2.4-1.58-2.07-2.08-1.6-2.4-.98-2.7-.36h-97.58v-4h97.82zM920.8 39.94v-4h62.96v4z" fill="#2db539"/><path d="M1161.6 200h-4v-2.05h4z" fill="#2db539"/><path d="M918.8 50.67l-21.52-12.73 21.52-12.72z" fill="#fff"/><path d="M920.8 54.17l-27.45-16.23L920.8 21.7zm-19.6-16.23l15.6 9.22V28.72z" fill="#2db539"/><use xlink:href="#ab" transform="matrix(1,0,0,1,983.7632719676744,27.275716610415646) translate(0.005000000000002558 14.222222222222223)"/><path d="M1120.8 68.3l3.38 1.4 2.9 2.23 2.24 2.9 1.4 3.37.46 3.5v90.85h-4V81.97l-.36-2.72-1-2.4-1.6-2.07-2.06-1.6-2.4-.98-2.72-.36h-57v-4h57.27zm-225.45 3.54v-4h84.74v4z" fill="#834187"/><path d="M895.4 71.84h-2.05v-4h2.06z" fill="#834187"/><path d="M1129.18 196.07l-12.73-21.52h25.45z" fill="#fff"/><path d="M1129.18 200l-16.24-27.45h32.47zm-9.22-23.45l9.22 15.6 9.2-15.6z" fill="#834187"/><use xlink:href="#ac" transform="matrix(1,0,0,1,980.087570699524,59.17333333333333) translate(0.005000000000002558 14.222222222222223)"/><path d="M835.74 362.68l2.9 2.9.57 2.07H880v4h-43.85l-1.08-4-1.4-1.4-2-.53-2 .54-1.38 1.4-1.1 4H692.46v-4h131.7l.55-2.07 2.9-2.92 4.08-1.1zm271.26-3.34l-.4 3.1-1.25 3-1.98 2.58-2.6 2-2.98 1.23-3.12.4h-12.13l-1.02-4.1-1.38-1.54-2.16-.82h-.2l-2.3.56-1.53 1.37-.83 2.17-.15 2.38h-17.37l-1.08-4-1.4-1.4-2-.53-1.98.54-1.4 1.4-1.07 4h-23.46l-1.08-4-1.4-1.4-2-.54-1.98.54-1.4 1.4-1.08 4h-54.34v-4h51.28l.56-2.07 2.9-2.92 4.07-1.1 4.07 1.1 2.9 2.9.56 2.07h17.33l.56-2.06 2.9-2.92 4.06-1.1 4.07 1.1 2.9 2.9.57 2.07h10.77l1.1-2.88 3.02-2.68 3.82-.96 1.43.1 3.64 1.38 2.67 3.02.5 2h8.75l2.32-.3 2.02-.83 1.75-1.33 1.36-1.76.84-2 .3-2.32v-57.4h4z" fill="#834187"/><path d="M1107 301.73h-4v-2.05h4z" fill="#834187"/><path d="M690.45 382.38l-21.52-12.73 21.52-12.72z" fill="#fff"/><path d="M692.45 385.88L665 369.65l27.45-16.23zm-19.6-16.23l15.6 9.22v-18.44z" fill="#834187"/><g><use xlink:href="#ac" transform="matrix(1,0,0,1,880.0105231796799,358.9849969766438) translate(0.005000000000002558 14.222222222222223)"/></g><path d="M565.27 698.8h-4V683h4zm0-37.12h-4v-10.3h4z" fill="#834187"/><path d="M565.27 651.42h-4v-2.05h4z" fill="#834187"/><path d="M563.27 722.3l-12.73-21.5H576z" fill="#fff"/><path d="M563.27 726.24l-16.24-27.45h32.47zm-9.22-23.45l9.22 15.58 9.22-15.6z" fill="#834187"/><g><use xlink:href="#L" transform="matrix(1,0,0,1,536.6481346631641,661.6818435800654) translate(0.004999999999999005 14.222222222222223)"/></g><path d="M835.74 413.58l2.9 2.9.57 2.08h23v4h-26.05l-1.08-4-1.4-1.4-2-.53-2 .54-1.38 1.4-1.1 4H667v-4h157.15l.55-2.08 2.9-2.92 4.08-1.1zm325.85-4.9l-.47 3.5-1.4 3.38-2.23 2.9-2.9 2.24-3.38 1.4-3.5.46h-65.5l-.14-2.4-.83-2.14-1.55-1.38-2.28-.57h-.2l-2.15.84-1.38 1.56-1.03 4.1h-17.04l-1.08-4-1.4-1.4-2-.53-1.98.54-1.4 1.4-1.07 4h-23.46l-1.08-4-1.4-1.4-2-.54-1.98.54-1.4 1.4-1.08 4h-26.72v-4h23.66l.56-2.08 2.9-2.92 4.07-1.1 4.07 1.1 2.9 2.9.56 2.08h17.33l.56-2.07 2.9-2.92 4.06-1.1 4.07 1.1 2.9 2.9.57 2.08h10.85l.5-2.02 2.67-3 3.64-1.4 1.43-.1 3.83.96 3 2.67 1.12 2.9h61.7l2.73-.37 2.4-1 2.07-1.58 1.6-2.08.98-2.4.36-2.7v-81.3h4z" fill="#fa7811"/><path d="M667.05 422.56H665v-4h2.05z" fill="#fa7811"/><path d="M1172.3 325.13h-25.44l12.73-21.52z" fill="#fff"/><path d="M1175.82 327.13h-32.47l16.24-27.45zm-25.45-4h18.44l-9.2-15.6z" fill="#fa7811"/><g><use xlink:href="#ad" transform="matrix(1,0,0,1,862.2010370934779,409.8904397386874) translate(0.005000000000002558 14.222222222222223)"/><use xlink:href="#ae" transform="matrix(1,0,0,1,862.2010370934779,409.8904397386874) translate(71.06672839506174 14.222222222222223)"/></g><path d="M1088.63 159.13l.73 1.77-.73 1.77-1.77.73-1.76-.73-.74-1.77.74-1.77 1.76-.73zm0-10.17l.73 1.77-.73 1.77-1.77.73-1.76-.73-.74-1.77.74-1.77 1.76-.73zm0-10.17l.73 1.76-.73 1.77-1.77.73-1.76-.73-.74-1.77.74-1.77 1.76-.74zm0-10.18l.73 1.77-.73 1.76-1.77.73-1.76-.74-.74-1.77.74-1.78 1.76-.73zm0-10.17l.73 1.77-.73 1.77-1.77.72-1.76-.73-.74-1.78.74-1.77 1.76-.73zm0-10.17l.73 1.77-.73 1.76-1.77.75-1.76-.74-.74-1.75.74-1.77 1.76-.73zm-3.5-8.5l.72 1.78-.73 1.77-1.77.73-1.77-.73-.73-1.77.73-1.77 1.77-.74zm-8.5-3.5l.73 1.77-.73 1.76-1.77.75-1.76-.74-.74-1.75.74-1.77 1.76-.73zm-9.94 0l.72 1.77-.73 1.76-1.78.75-1.77-.74-.73-1.75.73-1.77 1.77-.73zm-9.96 0l.73 1.77-.73 1.76-1.77.75-1.76-.74-.73-1.75.74-1.77 1.77-.73zm-9.94 0l.73 1.77-.73 1.76-1.77.75-1.77-.74-.73-1.75.73-1.77 1.77-.73zm-60.06-.16v3.85l-1.38.58-1.77-.74-.74-1.75.73-1.77 1.76-.73zm-9.56.16l.73 1.77-.72 1.76-1.77.75-1.75-.74-.74-1.75.75-1.77 1.76-.73zm-9.94 0l.73 1.77-.73 1.76-1.77.75-1.77-.74-.73-1.75.73-1.77 1.77-.73zm-9.95 0l.72 1.77-.73 1.76-1.78.75-1.76-.74-.74-1.75.74-1.77 1.76-.73zm-9.95 0l.73 1.77-.73 1.76-1.77.75-1.77-.74-.72-1.75.73-1.77 1.78-.73zm-9.95 0l.73 1.77-.73 1.76-1.77.75-1.76-.74-.74-1.75.74-1.77 1.76-.73zm-9.94 0l.73 1.77-.74 1.76-1.77.75-1.78-.74-.73-1.75.72-1.77 1.77-.73zm-9.95 0l.74 1.77-.73 1.76-1.76.75-1.76-.74-.74-1.75.74-1.77 1.76-.73zm-9.93 0l.73 1.77-.73 1.76-1.77.75-1.77-.74-.73-1.75.73-1.77 1.77-.73zm-9.95 0l.73 1.77-.73 1.76-1.77.75-1.76-.74-.75-1.75.74-1.77 1.75-.73z" fill="#fa7811"/><path d="M895.92 100.55h-2.57v-5h2.57z" fill="#fa7811"/><path d="M1086.86 195.1l-12.72-21.53h25.45z" fill="#fff"/><path d="M1086.86 200l-17.1-28.93h34.2zm-8.34-23.93l8.34 14.1 8.35-14.1z" fill="#fa7811"/><g><use xlink:href="#a" transform="matrix(1,0,0,1,986.7442737766545,87.38002787899553) translate(0.004999999999999005 14.222222222222223)"/></g><path d="M696.64 774.54l3.36 1.4 2.9 2.23 2.25 2.9 1.4 3.38.45 3.5v69.92l.36 2.72 1 2.38 1.58 2.08 2.08 1.6 2.4.98 2.7.36h24.17l.5-2.02 2.67-3 3.64-1.4 1.44-.1 3.83.96 3 2.67 1.12 2.9h66.65l.55-2.07 2.9-2.9 4.08-1.1 4.06 1.1 2.9 2.9.57 2.07h33.3v4h-36.35l-1.08-4-1.4-1.4-2-.53-2 .54-1.38 1.4-1.1 4h-73.23l-.14-2.38-.83-2.16-1.55-1.38-2.28-.56h-.2l-2.16.84-1.36 1.54-1.02 4.1h-27.55l-3.5-.46-3.37-1.4-2.9-2.23-2.25-2.9-1.4-3.36-.45-3.5V788.2l-.36-2.7-1-2.4-1.58-2.08-2.08-1.6-2.4-.98-2.7-.36H667v-4h26.13zM987 858.14l-.46 3.5-1.4 3.36-2.23 2.9-2.9 2.25-3.36 1.4-3.5.45h-23.6v-4h23.33l2.72-.36 2.38-1 2.08-1.58 1.6-2.08.98-2.4.36-2.7v-28.32h4z" fill="#333"/><path d="M667.05 778.08H665v-4h2.05zM996.9 846.05l-3.44 2.03-8.46-14.3-8.46 14.3-3.44-2.03 11.9-20.13z" fill="#333"/><g><use xlink:href="#af" transform="matrix(1,0,0,1,872.4905740281843,859.3333333333334) translate(0.005000000000002558 14.222222222222223)"/></g><defs><path fill="#333" d="M30 0v-248h187v28H63v79h144v27H63v87h162V0H30" id="ag"/><path fill="#333" d="M108 0H70L1-190h34L89-25l56-165h34" id="ah"/><path fill="#333" d="M100-194c63 0 86 42 84 106H49c0 40 14 67 53 68 26 1 43-12 49-29l28 8c-11 28-37 45-77 45C44 4 14-33 15-96c1-61 26-98 85-98zm52 81c6-60-76-77-97-28-3 7-6 17-6 28h103" id="ai"/><path fill="#333" d="M117-194c89-4 53 116 60 194h-32v-121c0-31-8-49-39-48C34-167 62-67 57 0H25l-1-190h30c1 10-1 24 2 32 11-22 29-35 61-36" id="aj"/><path fill="#333" d="M59-47c-2 24 18 29 38 22v24C64 9 27 4 27-40v-127H5v-23h24l9-43h21v43h35v23H59v120" id="ak"/><path fill="#333" d="M135-143c-3-34-86-38-87 0 15 53 115 12 119 90S17 21 10-45l28-5c4 36 97 45 98 0-10-56-113-15-118-90-4-57 82-63 122-42 12 7 21 19 24 35" id="al"/><g id="a"><use transform="matrix(0.04938271604938272,0,0,0.04938271604938272,0,0)" xlink:href="#ag"/><use transform="matrix(0.04938271604938272,0,0,0.04938271604938272,11.851851851851853,0)" xlink:href="#ah"/><use transform="matrix(0.04938271604938272,0,0,0.04938271604938272,20.74074074074074,0)" xlink:href="#ai"/><use transform="matrix(0.04938271604938272,0,0,0.04938271604938272,30.617283950617285,0)" xlink:href="#aj"/><use transform="matrix(0.04938271604938272,0,0,0.04938271604938272,40.49382716049383,0)" xlink:href="#ak"/><use transform="matrix(0.04938271604938272,0,0,0.04938271604938272,45.4320987654321,0)" xlink:href="#al"/></g><path fill="#333" d="M210-169c-67 3-38 105-44 169h-31v-121c0-29-5-50-35-48C34-165 62-65 56 0H25l-1-190h30c1 10-1 24 2 32 10-44 99-50 107 0 11-21 27-35 58-36 85-2 47 119 55 194h-31v-121c0-29-5-49-35-48" id="am"/><path fill="#333" d="M115-194c53 0 69 39 70 98 0 66-23 100-70 100C84 3 66-7 56-30L54 0H23l1-261h32v101c10-23 28-34 59-34zm-8 174c40 0 45-34 45-75 0-40-5-75-45-74-42 0-51 32-51 76 0 43 10 73 51 73" id="an"/><path fill="#333" d="M85-194c31 0 48 13 60 33l-1-100h32l1 261h-30c-2-10 0-23-3-31C134-8 116 4 85 4 32 4 16-35 15-94c0-66 23-100 70-100zm9 24c-40 0-46 34-46 75 0 40 6 74 45 74 42 0 51-32 51-76 0-42-9-74-50-73" id="ao"/><g id="b"><use transform="matrix(0.04938271604938272,0,0,0.04938271604938272,0,0)" xlink:href="#ag"/><use transform="matrix(0.04938271604938272,0,0,0.04938271604938272,11.851851851851853,0)" xlink:href="#am"/><use transform="matrix(0.04938271604938272,0,0,0.04938271604938272,26.617283950617285,0)" xlink:href="#an"/><use transform="matrix(0.04938271604938272,0,0,0.04938271604938272,36.49382716049383,0)" xlink:href="#ai"/><use transform="matrix(0.04938271604938272,0,0,0.04938271604938272,46.370370370370374,0)" xlink:href="#ao"/><use transform="matrix(0.04938271604938272,0,0,0.04938271604938272,56.24691358024692,0)" xlink:href="#ao"/><use transform="matrix(0.04938271604938272,0,0,0.04938271604938272,66.12345679012347,0)" xlink:href="#ai"/><use transform="matrix(0.04938271604938272,0,0,0.04938271604938272,76.00000000000001,0)" xlink:href="#ao"/></g><path fill="#333" d="M33 0v-248h34V0H33" id="ap"/><g id="c"><use transform="matrix(0.04938271604938272,0,0,0.04938271604938272,0,0)" xlink:href="#ap"/><use transform="matrix(0.04938271604938272,0,0,0.04938271604938272,4.938271604938272,0)" xlink:href="#aj"/></g><path fill="#333" d="M100-194c62-1 85 37 85 99 1 63-27 99-86 99S16-35 15-95c0-66 28-99 85-99zM99-20c44 1 53-31 53-75 0-43-8-75-51-75s-53 32-53 75 10 74 51 75" id="aq"/><path fill="#333" d="M143 0L79-87 56-68V0H24v-261h32v163l83-92h37l-77 82L181 0h-38" id="ar"/><g id="d"><use transform="matrix(0.04938271604938272,0,0,0.04938271604938272,0,0)" xlink:href="#ap"/><use transform="matrix(0.04938271604938272,0,0,0.04938271604938272,4.938271604938272,0)" xlink:href="#aj"/><use transform="matrix(0.04938271604938272,0,0,0.04938271604938272,14.814814814814817,0)" xlink:href="#ah"/><use transform="matrix(0.04938271604938272,0,0,0.04938271604938272,23.703703703703706,0)" xlink:href="#aq"/><use transform="matrix(0.04938271604938272,0,0,0.04938271604938272,33.580246913580254,0)" xlink:href="#ar"/><use transform="matrix(0.04938271604938272,0,0,0.04938271604938272,42.46913580246914,0)" xlink:href="#ai"/><use transform="matrix(0.04938271604938272,0,0,0.04938271604938272,52.345679012345684,0)" xlink:href="#al"/></g><path fill="#fff" d="M136-208V0H84v-208H4v-40h212v40h-80" id="as"/><path fill="#fff" d="M135-150c-39-12-60 13-60 57V0H25l-1-190h47c2 13-1 29 3 40 6-28 27-53 61-41v41" id="at"/><path fill="#fff" d="M133-34C117-15 103 5 69 4 32 3 11-16 11-54c-1-60 55-63 116-61 1-26-3-47-28-47-18 1-26 9-28 27l-52-2c7-38 36-58 82-57s74 22 75 68l1 82c-1 14 12 18 25 15v27c-30 8-71 5-69-32zm-48 3c29 0 43-24 42-57-32 0-66-3-65 30 0 17 8 27 23 27" id="au"/><path fill="#fff" d="M135-194c87-1 58 113 63 194h-50c-7-57 23-157-34-157-59 0-34 97-39 157H25l-1-190h47c2 12-1 28 3 38 12-26 28-41 61-42" id="av"/><path fill="#fff" d="M137-138c1-29-70-34-71-4 15 46 118 7 119 86 1 83-164 76-172 9l43-7c4 19 20 25 44 25 33 8 57-30 24-41C81-84 22-81 20-136c-2-80 154-74 161-7" id="aw"/><path fill="#fff" d="M135-194c53 0 70 44 70 98 0 56-19 98-73 100-31 1-45-17-59-34 3 33 2 69 2 105H25l-1-265h48c2 10 0 23 3 31 11-24 29-35 60-35zM114-30c33 0 39-31 40-66 0-38-9-64-40-64-56 0-55 130 0 130" id="ax"/><path fill="#fff" d="M110-194c64 0 96 36 96 99 0 64-35 99-97 99-61 0-95-36-95-99 0-62 34-99 96-99zm-1 164c35 0 45-28 45-65 0-40-10-65-43-65-34 0-45 26-45 65 0 36 10 65 43 65" id="ay"/><path fill="#fff" d="M115-3C79 11 28 4 28-45v-112H4v-33h27l15-45h31v45h36v33H77v99c-1 23 16 31 38 25v30" id="az"/><g id="e"><use transform="matrix(0.05,0,0,0.05,0,0)" xlink:href="#as"/><use transform="matrix(0.05,0,0,0.05,9.950000000000001,0)" xlink:href="#at"/><use transform="matrix(0.05,0,0,0.05,16.950000000000003,0)" xlink:href="#au"/><use transform="matrix(0.05,0,0,0.05,26.950000000000003,0)" xlink:href="#av"/><use transform="matrix(0.05,0,0,0.05,37.900000000000006,0)" xlink:href="#aw"/><use transform="matrix(0.05,0,0,0.05,47.900000000000006,0)" xlink:href="#ax"/><use transform="matrix(0.05,0,0,0.05,58.85,0)" xlink:href="#ay"/><use transform="matrix(0.05,0,0,0.05,69.80000000000001,0)" xlink:href="#at"/><use transform="matrix(0.05,0,0,0.05,76.80000000000001,0)" xlink:href="#az"/></g><path fill="#fff" d="M230 0l2-204L168 0h-37L68-204 70 0H24v-248h70l56 185 57-185h69V0h-46" id="aA"/><path fill="#fff" d="M195-6C206 82 75 100 31 46c-4-6-6-13-8-21l49-6c3 16 16 24 34 25 40 0 42-37 40-79-11 22-30 35-61 35-53 0-70-43-70-97 0-56 18-96 73-97 30 0 46 14 59 34l2-30h47zm-90-29c32 0 41-27 41-63 0-35-9-62-40-62-32 0-39 29-40 63 0 36 9 62 39 62" id="aB"/><path fill="#fff" d="M185-48c-13 30-37 53-82 52C43 2 14-33 14-96s30-98 90-98c62 0 83 45 84 108H66c0 31 8 55 39 56 18 0 30-7 34-22zm-45-69c5-46-57-63-70-21-2 6-4 13-4 21h74" id="aC"/><g id="f"><use transform="matrix(0.05,0,0,0.05,0,0)" xlink:href="#aA"/><use transform="matrix(0.05,0,0,0.05,14.950000000000001,0)" xlink:href="#au"/><use transform="matrix(0.05,0,0,0.05,24.950000000000003,0)" xlink:href="#av"/><use transform="matrix(0.05,0,0,0.05,35.900000000000006,0)" xlink:href="#au"/><use transform="matrix(0.05,0,0,0.05,45.900000000000006,0)" xlink:href="#aB"/><use transform="matrix(0.05,0,0,0.05,56.85,0)" xlink:href="#aC"/><use transform="matrix(0.05,0,0,0.05,66.85000000000001,0)" xlink:href="#at"/></g><path fill="#fff" d="M240-174c0 40-23 61-54 70L253 0h-59l-57-94H76V0H24v-248c93 4 217-23 216 74zM76-134c48-2 112 12 112-38 0-48-66-32-112-35v73" id="aD"/><path fill="#fff" d="M135-194c52 0 70 43 70 98 0 56-19 99-73 100-30 1-46-15-58-35L72 0H24l1-261h50v104c11-23 29-37 60-37zM114-30c31 0 40-27 40-66 0-37-7-63-39-63s-41 28-41 65c0 36 8 64 40 64" id="aE"/><path fill="#fff" d="M85 4C-2 5 27-109 22-190h50c7 57-23 150 33 157 60-5 35-97 40-157h50l1 190h-47c-2-12 1-28-3-38-12 25-28 42-61 42" id="aF"/><g id="g"><use transform="matrix(0.05,0,0,0.05,0,0)" xlink:href="#aD"/><use transform="matrix(0.05,0,0,0.05,12.950000000000001,0)" xlink:href="#ay"/><use transform="matrix(0.05,0,0,0.05,23.900000000000002,0)" xlink:href="#aE"/><use transform="matrix(0.05,0,0,0.05,34.85,0)" xlink:href="#aF"/><use transform="matrix(0.05,0,0,0.05,45.800000000000004,0)" xlink:href="#aw"/><use transform="matrix(0.05,0,0,0.05,55.800000000000004,0)" xlink:href="#az"/></g><g id="h"><use transform="matrix(0.05,0,0,0.05,0,0)" xlink:href="#as"/><use transform="matrix(0.05,0,0,0.05,9.950000000000001,0)" xlink:href="#at"/><use transform="matrix(0.05,0,0,0.05,16.950000000000003,0)" xlink:href="#au"/><use transform="matrix(0.05,0,0,0.05,26.950000000000003,0)" xlink:href="#av"/><use transform="matrix(0.05,0,0,0.05,37.900000000000006,0)" xlink:href="#aw"/><use transform="matrix(0.05,0,0,0.05,47.900000000000006,0)" xlink:href="#ax"/><use transform="matrix(0.05,0,0,0.05,58.85,0)" xlink:href="#ay"/><use transform="matrix(0.05,0,0,0.05,69.80000000000001,0)" xlink:href="#at"/><use transform="matrix(0.05,0,0,0.05,76.80000000000001,0)" xlink:href="#az"/></g><path fill="#fff" d="M185-189c-5-48-123-54-124 2 14 75 158 14 163 119 3 78-121 87-175 55-17-10-28-26-33-46l33-7c5 56 141 63 141-1 0-78-155-14-162-118-5-82 145-84 179-34 5 7 8 16 11 25" id="aG"/><path fill="#fff" d="M59-47c-2 24 18 29 38 22v24C64 9 27 4 27-40v-127H5v-23h24l9-43h21v43h35v23H59v120" id="aH"/><path fill="#fff" d="M114-163C36-179 61-72 57 0H25l-1-190h30c1 12-1 29 2 39 6-27 23-49 58-41v29" id="aI"/><path fill="#fff" d="M100-194c63 0 86 42 84 106H49c0 40 14 67 53 68 26 1 43-12 49-29l28 8c-11 28-37 45-77 45C44 4 14-33 15-96c1-61 26-98 85-98zm52 81c6-60-76-77-97-28-3 7-6 17-6 28h103" id="aJ"/><path fill="#fff" d="M141-36C126-15 110 5 73 4 37 3 15-17 15-53c-1-64 63-63 125-63 3-35-9-54-41-54-24 1-41 7-42 31l-33-3c5-37 33-52 76-52 45 0 72 20 72 64v82c-1 20 7 32 28 27v20c-31 9-61-2-59-35zM48-53c0 20 12 33 32 33 41-3 63-29 60-74-43 2-92-5-92 41" id="aK"/><path fill="#fff" d="M85-194c31 0 48 13 60 33l-1-100h32l1 261h-30c-2-10 0-23-3-31C134-8 116 4 85 4 32 4 16-35 15-94c0-66 23-100 70-100zm9 24c-40 0-46 34-46 75 0 40 6 74 45 74 42 0 51-32 51-76 0-42-9-74-50-73" id="aL"/><path fill="#fff" d="M206 0h-36l-40-164L89 0H53L-1-190h32L70-26l43-164h34l41 164 42-164h31" id="aM"/><path fill="#fff" d="M179-190L93 31C79 59 56 82 12 73V49c39 6 53-20 64-50L1-190h34L92-34l54-156h33" id="aN"/><g id="i"><use transform="matrix(0.04938271604938272,0,0,0.04938271604938272,0,0)" xlink:href="#aG"/><use transform="matrix(0.04938271604938272,0,0,0.04938271604938272,11.851851851851853,0)" xlink:href="#aH"/><use transform="matrix(0.04938271604938272,0,0,0.04938271604938272,16.790123456790127,0)" xlink:href="#aI"/><use transform="matrix(0.04938271604938272,0,0,0.04938271604938272,22.66666666666667,0)" xlink:href="#aJ"/><use transform="matrix(0.04938271604938272,0,0,0.04938271604938272,32.543209876543216,0)" xlink:href="#aK"/><use transform="matrix(0.04938271604938272,0,0,0.04938271604938272,42.41975308641976,0)" xlink:href="#aL"/><use transform="matrix(0.04938271604938272,0,0,0.04938271604938272,52.2962962962963,0)" xlink:href="#aM"/><use transform="matrix(0.04938271604938272,0,0,0.04938271604938272,65.08641975308643,0)" xlink:href="#aK"/><use transform="matrix(0.04938271604938272,0,0,0.04938271604938272,74.96296296296298,0)" xlink:href="#aN"/></g><path fill="#fff" d="M127-220V0H93v-220H8v-28h204v28h-85" id="aO"/><path fill="#fff" d="M117-194c89-4 53 116 60 194h-32v-121c0-31-8-49-39-48C34-167 62-67 57 0H25l-1-190h30c1 10-1 24 2 32 11-22 29-35 61-36" id="aP"/><path fill="#fff" d="M135-143c-3-34-86-38-87 0 15 53 115 12 119 90S17 21 10-45l28-5c4 36 97 45 98 0-10-56-113-15-118-90-4-57 82-63 122-42 12 7 21 19 24 35" id="aQ"/><path fill="#fff" d="M115-194c55 1 70 41 70 98S169 2 115 4C84 4 66-9 55-30l1 105H24l-1-265h31l2 30c10-21 28-34 59-34zm-8 174c40 0 45-34 45-75s-6-73-45-74c-42 0-51 32-51 76 0 43 10 73 51 73" id="aR"/><path fill="#fff" d="M100-194c62-1 85 37 85 99 1 63-27 99-86 99S16-35 15-95c0-66 28-99 85-99zM99-20c44 1 53-31 53-75 0-43-8-75-51-75s-53 32-53 75 10 74 51 75" id="aS"/><g id="j"><use transform="matrix(0.04938271604938272,0,0,0.04938271604938272,0,0)" xlink:href="#aO"/><use transform="matrix(0.04938271604938272,0,0,0.04938271604938272,10.17283950617284,0)" xlink:href="#aI"/><use transform="matrix(0.04938271604938272,0,0,0.04938271604938272,16.049382716049383,0)" xlink:href="#aK"/><use transform="matrix(0.04938271604938272,0,0,0.04938271604938272,25.925925925925927,0)" xlink:href="#aP"/><use transform="matrix(0.04938271604938272,0,0,0.04938271604938272,35.80246913580247,0)" xlink:href="#aQ"/><use transform="matrix(0.04938271604938272,0,0,0.04938271604938272,44.691358024691354,0)" xlink:href="#aR"/><use transform="matrix(0.04938271604938272,0,0,0.04938271604938272,54.56790123456789,0)" xlink:href="#aS"/><use transform="matrix(0.04938271604938272,0,0,0.04938271604938272,64.44444444444444,0)" xlink:href="#aI"/><use transform="matrix(0.04938271604938272,0,0,0.04938271604938272,70.32098765432099,0)" xlink:href="#aH"/></g><path fill="#333" d="M240 0l2-218c-23 76-54 145-80 218h-23L58-218 59 0H30v-248h44l77 211c21-75 51-140 76-211h43V0h-30" id="aT"/><path fill="#333" d="M141-36C126-15 110 5 73 4 37 3 15-17 15-53c-1-64 63-63 125-63 3-35-9-54-41-54-24 1-41 7-42 31l-33-3c5-37 33-52 76-52 45 0 72 20 72 64v82c-1 20 7 32 28 27v20c-31 9-61-2-59-35zM48-53c0 20 12 33 32 33 41-3 63-29 60-74-43 2-92-5-92 41" id="aU"/><path fill="#333" d="M177-190C167-65 218 103 67 71c-23-6-38-20-44-43l32-5c15 47 100 32 89-28v-30C133-14 115 1 83 1 29 1 15-40 15-95c0-56 16-97 71-98 29-1 48 16 59 35 1-10 0-23 2-32h30zM94-22c36 0 50-32 50-73 0-42-14-75-50-75-39 0-46 34-46 75s6 73 46 73" id="aV"/><g id="k"><use transform="matrix(0.04938271604938272,0,0,0.04938271604938272,0,0)" xlink:href="#aT"/><use transform="matrix(0.04938271604938272,0,0,0.04938271604938272,14.765432098765434,0)" xlink:href="#aU"/><use transform="matrix(0.04938271604938272,0,0,0.04938271604938272,24.641975308641978,0)" xlink:href="#aj"/><use transform="matrix(0.04938271604938272,0,0,0.04938271604938272,34.51851851851852,0)" xlink:href="#aU"/><use transform="matrix(0.04938271604938272,0,0,0.04938271604938272,44.39506172839506,0)" xlink:href="#aV"/><use transform="matrix(0.04938271604938272,0,0,0.04938271604938272,54.27160493827161,0)" xlink:href="#ai"/><use transform="matrix(0.04938271604938272,0,0,0.04938271604938272,64.14814814814815,0)" xlink:href="#al"/></g><path fill="#333" d="M115-194c55 1 70 41 70 98S169 2 115 4C84 4 66-9 55-30l1 105H24l-1-265h31l2 30c10-21 28-34 59-34zm-8 174c40 0 45-34 45-75s-6-73-45-74c-42 0-51 32-51 76 0 43 10 73 51 73" id="aW"/><path fill="#333" d="M24 0v-261h32V0H24" id="aX"/><g id="l"><use transform="matrix(0.04938271604938272,0,0,0.04938271604938272,0,0)" xlink:href="#ap"/><use transform="matrix(0.04938271604938272,0,0,0.04938271604938272,4.938271604938272,0)" xlink:href="#am"/><use transform="matrix(0.04938271604938272,0,0,0.04938271604938272,19.703703703703706,0)" xlink:href="#aW"/><use transform="matrix(0.04938271604938272,0,0,0.04938271604938272,29.58024691358025,0)" xlink:href="#aX"/><use transform="matrix(0.04938271604938272,0,0,0.04938271604938272,33.48148148148149,0)" xlink:href="#ai"/><use transform="matrix(0.04938271604938272,0,0,0.04938271604938272,43.35802469135803,0)" xlink:href="#am"/><use transform="matrix(0.04938271604938272,0,0,0.04938271604938272,58.12345679012347,0)" xlink:href="#ai"/><use transform="matrix(0.04938271604938272,0,0,0.04938271604938272,68.00000000000001,0)" xlink:href="#aj"/><use transform="matrix(0.04938271604938272,0,0,0.04938271604938272,77.87654320987656,0)" xlink:href="#ak"/><use transform="matrix(0.04938271604938272,0,0,0.04938271604938272,82.81481481481484,0)" xlink:href="#al"/></g><path fill="#fff" d="M169-182c-1-43-94-46-97-3 18 66 151 10 154 114 3 95-165 93-204 36-6-8-10-19-12-30l50-8c3 46 112 56 116 5-17-69-150-10-154-114-4-87 153-88 188-35 5 8 8 18 10 28" id="aY"/><path fill="#fff" d="M88-194c31-1 46 15 58 34l-1-101h50l1 261h-48c-2-10 0-23-3-31C134-8 116 4 84 4 32 4 16-41 15-95c0-56 19-97 73-99zm17 164c33 0 40-30 41-66 1-37-9-64-41-64s-38 30-39 65c0 43 13 65 39 65" id="aZ"/><path fill="#fff" d="M231 0h-52l-39-155L100 0H48L-1-190h46L77-45c9-52 24-97 36-145h53l37 145 32-145h46" id="ba"/><path fill="#fff" d="M123 10C108 53 80 86 19 72V37c35 8 53-11 59-39L3-190h52l48 148c12-52 28-100 44-148h51" id="bb"/><g id="m"><use transform="matrix(0.04938271604938272,0,0,0.04938271604938272,0,0)" xlink:href="#aY"/><use transform="matrix(0.04938271604938272,0,0,0.04938271604938272,11.851851851851853,0)" xlink:href="#az"/><use transform="matrix(0.04938271604938272,0,0,0.04938271604938272,17.728395061728396,0)" xlink:href="#at"/><use transform="matrix(0.04938271604938272,0,0,0.04938271604938272,24.641975308641975,0)" xlink:href="#aC"/><use transform="matrix(0.04938271604938272,0,0,0.04938271604938272,34.51851851851852,0)" xlink:href="#au"/><use transform="matrix(0.04938271604938272,0,0,0.04938271604938272,44.39506172839506,0)" xlink:href="#aZ"/><use transform="matrix(0.04938271604938272,0,0,0.04938271604938272,55.20987654320988,0)" xlink:href="#ba"/><use transform="matrix(0.04938271604938272,0,0,0.04938271604938272,69.03703703703704,0)" xlink:href="#au"/><use transform="matrix(0.04938271604938272,0,0,0.04938271604938272,78.91358024691358,0)" xlink:href="#bb"/></g><path fill="#fff" d="M114-157C55-157 80-60 75 0H25v-261h50l-1 109c12-26 28-41 61-42 86-1 58 113 63 194h-50c-7-57 23-157-34-157" id="bc"/><g id="n"><use transform="matrix(0.04938271604938272,0,0,0.04938271604938272,0,0)" xlink:href="#aA"/><use transform="matrix(0.04938271604938272,0,0,0.04938271604938272,14.765432098765434,0)" xlink:href="#aC"/><use transform="matrix(0.04938271604938272,0,0,0.04938271604938272,24.641975308641978,0)" xlink:href="#az"/><use transform="matrix(0.04938271604938272,0,0,0.04938271604938272,30.518518518518523,0)" xlink:href="#bc"/><use transform="matrix(0.04938271604938272,0,0,0.04938271604938272,41.333333333333336,0)" xlink:href="#ay"/><use transform="matrix(0.04938271604938272,0,0,0.04938271604938272,52.14814814814815,0)" xlink:href="#aZ"/><use transform="matrix(0.04938271604938272,0,0,0.04938271604938272,62.96296296296297,0)" xlink:href="#aw"/></g><path fill="#fff" d="M25-224v-37h50v37H25zM25 0v-190h50V0H25" id="bd"/><path fill="#fff" d="M25 0v-261h50V0H25" id="be"/><g id="o"><use transform="matrix(0.04938271604938272,0,0,0.04938271604938272,0,0)" xlink:href="#aA"/><use transform="matrix(0.04938271604938272,0,0,0.04938271604938272,14.765432098765434,0)" xlink:href="#bd"/><use transform="matrix(0.04938271604938272,0,0,0.04938271604938272,19.703703703703706,0)" xlink:href="#aZ"/><use transform="matrix(0.04938271604938272,0,0,0.04938271604938272,30.518518518518523,0)" xlink:href="#aZ"/><use transform="matrix(0.04938271604938272,0,0,0.04938271604938272,41.333333333333336,0)" xlink:href="#be"/><use transform="matrix(0.04938271604938272,0,0,0.04938271604938272,46.27160493827161,0)" xlink:href="#aC"/><use transform="matrix(0.04938271604938272,0,0,0.04938271604938272,56.14814814814815,0)" xlink:href="#ba"/><use transform="matrix(0.04938271604938272,0,0,0.04938271604938272,69.97530864197532,0)" xlink:href="#au"/><use transform="matrix(0.04938271604938272,0,0,0.04938271604938272,79.85185185185186,0)" xlink:href="#at"/><use transform="matrix(0.04938271604938272,0,0,0.04938271604938272,86.76543209876544,0)" xlink:href="#aC"/></g><path fill="#333" d="M30-248c87 1 191-15 191 75 0 78-77 80-158 76V0H30v-248zm33 125c57 0 124 11 124-50 0-59-68-47-124-48v98" id="bf"/><path fill="#333" d="M114-163C36-179 61-72 57 0H25l-1-190h30c1 12-1 29 2 39 6-27 23-49 58-41v29" id="bg"/><path fill="#333" d="M24-231v-30h32v30H24zM24 0v-190h32V0H24" id="bh"/><g id="p"><use transform="matrix(0.04938271604938272,0,0,0.04938271604938272,0,0)" xlink:href="#bf"/><use transform="matrix(0.04938271604938272,0,0,0.04938271604938272,11.851851851851853,0)" xlink:href="#bg"/><use transform="matrix(0.04938271604938272,0,0,0.04938271604938272,17.728395061728396,0)" xlink:href="#aq"/><use transform="matrix(0.04938271604938272,0,0,0.04938271604938272,27.60493827160494,0)" xlink:href="#ah"/><use transform="matrix(0.04938271604938272,0,0,0.04938271604938272,36.49382716049383,0)" xlink:href="#bh"/><use transform="matrix(0.04938271604938272,0,0,0.04938271604938272,40.39506172839506,0)" xlink:href="#ao"/><use transform="matrix(0.04938271604938272,0,0,0.04938271604938272,50.27160493827161,0)" xlink:href="#ai"/><use transform="matrix(0.04938271604938272,0,0,0.04938271604938272,60.14814814814815,0)" xlink:href="#al"/></g><path fill="#333" d="M232-93c-1 65-40 97-104 97C67 4 28-28 28-90v-158h33c8 89-33 224 67 224 102 0 64-133 71-224h33v155" id="bi"/><path fill="#333" d="M145-31C134-9 116 4 85 4 32 4 16-35 15-94c0-59 17-99 70-100 32-1 48 14 60 33 0-11-1-24 2-32h30l-1 268h-32zM93-21c41 0 51-33 51-76s-8-73-50-73c-40 0-46 35-46 75s5 74 45 74" id="bj"/><path fill="#333" d="M84 4C-5 8 30-112 23-190h32v120c0 31 7 50 39 49 72-2 45-101 50-169h31l1 190h-30c-1-10 1-25-2-33-11 22-28 36-60 37" id="bk"/><g id="q"><use transform="matrix(0.04938271604938272,0,0,0.04938271604938272,0,0)" xlink:href="#bi"/><use transform="matrix(0.04938271604938272,0,0,0.04938271604938272,12.790123456790125,0)" xlink:href="#aj"/><use transform="matrix(0.04938271604938272,0,0,0.04938271604938272,22.66666666666667,0)" xlink:href="#bh"/><use transform="matrix(0.04938271604938272,0,0,0.04938271604938272,26.567901234567902,0)" xlink:href="#bj"/><use transform="matrix(0.04938271604938272,0,0,0.04938271604938272,36.44444444444445,0)" xlink:href="#bk"/><use transform="matrix(0.04938271604938272,0,0,0.04938271604938272,46.320987654320994,0)" xlink:href="#ai"/></g><path fill="#fff" d="M30 0v-248h187v28H63v79h144v27H63v87h162V0H30" id="bl"/><path fill="#fff" d="M141 0L90-78 38 0H4l68-98-65-92h35l48 74 47-74h35l-64 92 68 98h-35" id="bm"/><g id="r"><use transform="matrix(0.04938271604938272,0,0,0.04938271604938272,0,0)" xlink:href="#bl"/><use transform="matrix(0.04938271604938272,0,0,0.04938271604938272,11.851851851851853,0)" xlink:href="#bm"/><use transform="matrix(0.04938271604938272,0,0,0.04938271604938272,20.74074074074074,0)" xlink:href="#aR"/><use transform="matrix(0.04938271604938272,0,0,0.04938271604938272,30.617283950617285,0)" xlink:href="#aS"/><use transform="matrix(0.04938271604938272,0,0,0.04938271604938272,40.49382716049383,0)" xlink:href="#aI"/><use transform="matrix(0.04938271604938272,0,0,0.04938271604938272,46.370370370370374,0)" xlink:href="#aH"/><use transform="matrix(0.04938271604938272,0,0,0.04938271604938272,51.308641975308646,0)" xlink:href="#aJ"/><use transform="matrix(0.04938271604938272,0,0,0.04938271604938272,61.18518518518519,0)" xlink:href="#aL"/></g><path fill="#fff" d="M240 0l2-218c-23 76-54 145-80 218h-23L58-218 59 0H30v-248h44l77 211c21-75 51-140 76-211h43V0h-30" id="bn"/><path fill="#fff" d="M106-169C34-169 62-67 57 0H25v-261h32l-1 103c12-21 28-36 61-36 89 0 53 116 60 194h-32v-121c2-32-8-49-39-48" id="bo"/><g id="s"><use transform="matrix(0.04938271604938272,0,0,0.04938271604938272,0,0)" xlink:href="#bn"/><use transform="matrix(0.04938271604938272,0,0,0.04938271604938272,14.765432098765434,0)" xlink:href="#aJ"/><use transform="matrix(0.04938271604938272,0,0,0.04938271604938272,24.641975308641978,0)" xlink:href="#aH"/><use transform="matrix(0.04938271604938272,0,0,0.04938271604938272,29.58024691358025,0)" xlink:href="#bo"/><use transform="matrix(0.04938271604938272,0,0,0.04938271604938272,39.4567901234568,0)" xlink:href="#aS"/><use transform="matrix(0.04938271604938272,0,0,0.04938271604938272,49.33333333333334,0)" xlink:href="#aL"/><use transform="matrix(0.04938271604938272,0,0,0.04938271604938272,59.209876543209894,0)" xlink:href="#aQ"/></g><path fill="#333" d="M212-179c-10-28-35-45-73-45-59 0-87 40-87 99 0 60 29 101 89 101 43 0 62-24 78-52l27 14C228-24 195 4 139 4 59 4 22-46 18-125c-6-104 99-153 187-111 19 9 31 26 39 46" id="bp"/><g id="t"><use transform="matrix(0.04938271604938272,0,0,0.04938271604938272,0,0)" xlink:href="#bp"/><use transform="matrix(0.04938271604938272,0,0,0.04938271604938272,12.790123456790125,0)" xlink:href="#aq"/><use transform="matrix(0.04938271604938272,0,0,0.04938271604938272,22.66666666666667,0)" xlink:href="#am"/><use transform="matrix(0.04938271604938272,0,0,0.04938271604938272,37.4320987654321,0)" xlink:href="#am"/><use transform="matrix(0.04938271604938272,0,0,0.04938271604938272,52.19753086419754,0)" xlink:href="#aq"/><use transform="matrix(0.04938271604938272,0,0,0.04938271604938272,62.074074074074076,0)" xlink:href="#aj"/></g><g id="u"><use transform="matrix(0.04938271604938272,0,0,0.04938271604938272,0,0)" xlink:href="#as"/><use transform="matrix(0.04938271604938272,0,0,0.04938271604938272,9.82716049382716,0)" xlink:href="#at"/><use transform="matrix(0.04938271604938272,0,0,0.04938271604938272,16.74074074074074,0)" xlink:href="#au"/><use transform="matrix(0.04938271604938272,0,0,0.04938271604938272,26.617283950617285,0)" xlink:href="#av"/><use transform="matrix(0.04938271604938272,0,0,0.04938271604938272,37.4320987654321,0)" xlink:href="#aw"/><use transform="matrix(0.04938271604938272,0,0,0.04938271604938272,47.308641975308646,0)" xlink:href="#ax"/><use transform="matrix(0.04938271604938272,0,0,0.04938271604938272,58.12345679012346,0)" xlink:href="#ay"/><use transform="matrix(0.04938271604938272,0,0,0.04938271604938272,68.93827160493828,0)" xlink:href="#at"/><use transform="matrix(0.04938271604938272,0,0,0.04938271604938272,75.85185185185186,0)" xlink:href="#az"/></g><path fill="#fff" d="M24 0v-248h52v208h133V0H24" id="bq"/><path fill="#fff" d="M190-63c-7 42-38 67-86 67-59 0-84-38-90-98-12-110 154-137 174-36l-49 2c-2-19-15-32-35-32-30 0-35 28-38 64-6 74 65 87 74 30" id="br"/><path fill="#fff" d="M147 0L96-86 75-71V0H25v-261h50v150l67-79h53l-66 74L201 0h-54" id="bs"/><g id="v"><use transform="matrix(0.04938271604938272,0,0,0.04938271604938272,0,0)" xlink:href="#bq"/><use transform="matrix(0.04938271604938272,0,0,0.04938271604938272,10.814814814814815,0)" xlink:href="#ay"/><use transform="matrix(0.04938271604938272,0,0,0.04938271604938272,21.62962962962963,0)" xlink:href="#br"/><use transform="matrix(0.04938271604938272,0,0,0.04938271604938272,31.506172839506174,0)" xlink:href="#bs"/></g><path fill="#fff" d="M87 75C49 33 22-17 22-94c0-76 28-126 65-167h31c-38 41-64 92-64 168S80 34 118 75H87" id="bt"/><path fill="#fff" d="M233-177c-1 41-23 64-60 70L243 0h-38l-65-103H63V0H30v-248c88 3 205-21 203 71zM63-129c60-2 137 13 137-47 0-61-80-42-137-45v92" id="bu"/><path fill="#fff" d="M266 0h-40l-56-210L115 0H75L2-248h35L96-30l15-64 43-154h32l59 218 59-218h35" id="bv"/><path fill="#fff" d="M84 4C-5 8 30-112 23-190h32v120c0 31 7 50 39 49 72-2 45-101 50-169h31l1 190h-30c-1-10 1-25-2-33-11 22-28 36-60 37" id="bw"/><path fill="#fff" d="M33-261c38 41 65 92 65 168S71 34 33 75H2C39 34 66-17 66-93S39-220 2-261h31" id="bx"/><g id="w"><use transform="matrix(0.04320987654320988,0,0,0.04320987654320988,0,0)" xlink:href="#bt"/><use transform="matrix(0.04320987654320988,0,0,0.04320987654320988,5.1419753086419755,0)" xlink:href="#bu"/><use transform="matrix(0.04320987654320988,0,0,0.04320987654320988,16.030864197530867,0)" xlink:href="#bv"/><use transform="matrix(0.04320987654320988,0,0,0.04320987654320988,30.679012345679016,0)" xlink:href="#bn"/><use transform="matrix(0.04320987654320988,0,0,0.04320987654320988,43.59876543209877,0)" xlink:href="#bw"/><use transform="matrix(0.04320987654320988,0,0,0.04320987654320988,52.24074074074075,0)" xlink:href="#aH"/><use transform="matrix(0.04320987654320988,0,0,0.04320987654320988,56.561728395061735,0)" xlink:href="#aJ"/><use transform="matrix(0.04320987654320988,0,0,0.04320987654320988,65.20370370370371,0)" xlink:href="#bm"/><use transform="matrix(0.04320987654320988,0,0,0.04320987654320988,72.9814814814815,0)" xlink:href="#bx"/></g><g id="x"><use transform="matrix(0.04938271604938272,0,0,0.04938271604938272,0,0)" xlink:href="#bf"/><use transform="matrix(0.04938271604938272,0,0,0.04938271604938272,11.851851851851853,0)" xlink:href="#bg"/><use transform="matrix(0.04938271604938272,0,0,0.04938271604938272,17.728395061728396,0)" xlink:href="#aq"/><use transform="matrix(0.04938271604938272,0,0,0.04938271604938272,27.60493827160494,0)" xlink:href="#ah"/><use transform="matrix(0.04938271604938272,0,0,0.04938271604938272,36.49382716049383,0)" xlink:href="#bh"/><use transform="matrix(0.04938271604938272,0,0,0.04938271604938272,40.39506172839506,0)" xlink:href="#ao"/><use transform="matrix(0.04938271604938272,0,0,0.04938271604938272,50.27160493827161,0)" xlink:href="#ai"/><use transform="matrix(0.04938271604938272,0,0,0.04938271604938272,60.14814814814815,0)" xlink:href="#al"/></g><g id="y"><use transform="matrix(0.04938271604938272,0,0,0.04938271604938272,0,0)" xlink:href="#aD"/><use transform="matrix(0.04938271604938272,0,0,0.04938271604938272,12.790123456790125,0)" xlink:href="#aC"/><use transform="matrix(0.04938271604938272,0,0,0.04938271604938272,22.66666666666667,0)" xlink:href="#aZ"/><use transform="matrix(0.04938271604938272,0,0,0.04938271604938272,33.48148148148149,0)" xlink:href="#bd"/><use transform="matrix(0.04938271604938272,0,0,0.04938271604938272,38.41975308641976,0)" xlink:href="#au"/><use transform="matrix(0.04938271604938272,0,0,0.04938271604938272,48.296296296296305,0)" xlink:href="#be"/></g><g id="z"><use transform="matrix(0.04938271604938272,0,0,0.04938271604938272,0,0)" xlink:href="#aD"/><use transform="matrix(0.04938271604938272,0,0,0.04938271604938272,12.790123456790125,0)" xlink:href="#ay"/><use transform="matrix(0.04938271604938272,0,0,0.04938271604938272,23.60493827160494,0)" xlink:href="#aF"/><use transform="matrix(0.04938271604938272,0,0,0.04938271604938272,34.41975308641975,0)" xlink:href="#az"/><use transform="matrix(0.04938271604938272,0,0,0.04938271604938272,40.2962962962963,0)" xlink:href="#bd"/><use transform="matrix(0.04938271604938272,0,0,0.04938271604938272,45.23456790123457,0)" xlink:href="#av"/><use transform="matrix(0.04938271604938272,0,0,0.04938271604938272,56.04938271604939,0)" xlink:href="#aC"/></g><g id="A"><use transform="matrix(0.04938271604938272,0,0,0.04938271604938272,0,0)" xlink:href="#aA"/><use transform="matrix(0.04938271604938272,0,0,0.04938271604938272,14.765432098765434,0)" xlink:href="#aC"/><use transform="matrix(0.04938271604938272,0,0,0.04938271604938272,24.641975308641978,0)" xlink:href="#az"/><use transform="matrix(0.04938271604938272,0,0,0.04938271604938272,30.518518518518523,0)" xlink:href="#bc"/><use transform="matrix(0.04938271604938272,0,0,0.04938271604938272,41.333333333333336,0)" xlink:href="#ay"/><use transform="matrix(0.04938271604938272,0,0,0.04938271604938272,52.14814814814815,0)" xlink:href="#aZ"/></g><path fill="#fff" d="M186 0v-106H76V0H24v-248h52v99h110v-99h50V0h-50" id="by"/><g id="B"><use transform="matrix(0.04938271604938272,0,0,0.04938271604938272,0,0)" xlink:href="#by"/><use transform="matrix(0.04938271604938272,0,0,0.04938271604938272,12.790123456790125,0)" xlink:href="#au"/><use transform="matrix(0.04938271604938272,0,0,0.04938271604938272,22.66666666666667,0)" xlink:href="#av"/><use transform="matrix(0.04938271604938272,0,0,0.04938271604938272,33.48148148148149,0)" xlink:href="#aZ"/><use transform="matrix(0.04938271604938272,0,0,0.04938271604938272,44.296296296296305,0)" xlink:href="#be"/><use transform="matrix(0.04938271604938272,0,0,0.04938271604938272,49.23456790123458,0)" xlink:href="#aC"/><use transform="matrix(0.04938271604938272,0,0,0.04938271604938272,59.111111111111114,0)" xlink:href="#at"/><use transform="matrix(0.04938271604938272,0,0,0.04938271604938272,66.0246913580247,0)" xlink:href="#aw"/></g><path fill="#333" d="M205 0l-28-72H64L36 0H1l101-248h38L239 0h-34zm-38-99l-47-123c-12 45-31 82-46 123h93" id="bz"/><g id="C"><use transform="matrix(0.04938271604938272,0,0,0.04938271604938272,0,0)" xlink:href="#bz"/><use transform="matrix(0.04938271604938272,0,0,0.04938271604938272,11.851851851851853,0)" xlink:href="#bj"/><use transform="matrix(0.04938271604938272,0,0,0.04938271604938272,21.7283950617284,0)" xlink:href="#bk"/><use transform="matrix(0.04938271604938272,0,0,0.04938271604938272,31.60493827160494,0)" xlink:href="#bh"/><use transform="matrix(0.04938271604938272,0,0,0.04938271604938272,35.50617283950618,0)" xlink:href="#bg"/><use transform="matrix(0.04938271604938272,0,0,0.04938271604938272,41.38271604938272,0)" xlink:href="#ai"/><use transform="matrix(0.04938271604938272,0,0,0.04938271604938272,51.25925925925927,0)" xlink:href="#al"/></g><path fill="#333" d="M266 0h-40l-56-210L115 0H75L2-248h35L96-30l15-64 43-154h32l59 218 59-218h35" id="bA"/><g id="D"><use transform="matrix(0.04938271604938272,0,0,0.04938271604938272,0,0)" xlink:href="#bA"/><use transform="matrix(0.04938271604938272,0,0,0.04938271604938272,16.39506172839506,0)" xlink:href="#bg"/><use transform="matrix(0.04938271604938272,0,0,0.04938271604938272,22.271604938271604,0)" xlink:href="#bh"/><use transform="matrix(0.04938271604938272,0,0,0.04938271604938272,26.172839506172835,0)" xlink:href="#ak"/><use transform="matrix(0.04938271604938272,0,0,0.04938271604938272,31.111111111111107,0)" xlink:href="#ai"/></g><g id="E"><use transform="matrix(0.04938271604938272,0,0,0.04938271604938272,0,0)" xlink:href="#aD"/><use transform="matrix(0.04938271604938272,0,0,0.04938271604938272,12.790123456790125,0)" xlink:href="#aC"/><use transform="matrix(0.04938271604938272,0,0,0.04938271604938272,22.66666666666667,0)" xlink:href="#az"/><use transform="matrix(0.04938271604938272,0,0,0.04938271604938272,28.54320987654322,0)" xlink:href="#at"/><use transform="matrix(0.04938271604938272,0,0,0.04938271604938272,35.4567901234568,0)" xlink:href="#bb"/></g><path fill="#fff" d="M140-251c80 0 125 45 125 126S219 4 139 4C58 4 15-44 15-125s44-126 125-126zm-1 214c52 0 73-35 73-88 0-50-21-86-72-86-52 0-73 35-73 86s22 88 72 88" id="bB"/><g id="F"><use transform="matrix(0.04938271604938272,0,0,0.04938271604938272,0,0)" xlink:href="#bB"/><use transform="matrix(0.04938271604938272,0,0,0.04938271604938272,13.827160493827162,0)" xlink:href="#av"/></g><path fill="#fff" d="M24-248c120-7 223 5 221 122C244-46 201 0 124 0H24v-248zM76-40c74 7 117-18 117-86 0-67-45-88-117-82v168" id="bC"/><g id="G"><use transform="matrix(0.04938271604938272,0,0,0.04938271604938272,0,0)" xlink:href="#bC"/><use transform="matrix(0.04938271604938272,0,0,0.04938271604938272,12.790123456790125,0)" xlink:href="#bd"/><use transform="matrix(0.04938271604938272,0,0,0.04938271604938272,17.7283950617284,0)" xlink:href="#aw"/><use transform="matrix(0.04938271604938272,0,0,0.04938271604938272,27.604938271604947,0)" xlink:href="#br"/><use transform="matrix(0.04938271604938272,0,0,0.04938271604938272,37.48148148148149,0)" xlink:href="#ay"/><use transform="matrix(0.04938271604938272,0,0,0.04938271604938272,48.296296296296305,0)" xlink:href="#av"/><use transform="matrix(0.04938271604938272,0,0,0.04938271604938272,59.111111111111114,0)" xlink:href="#av"/><use transform="matrix(0.04938271604938272,0,0,0.04938271604938272,69.92592592592594,0)" xlink:href="#aC"/><use transform="matrix(0.04938271604938272,0,0,0.04938271604938272,79.80246913580248,0)" xlink:href="#br"/><use transform="matrix(0.04938271604938272,0,0,0.04938271604938272,89.67901234567903,0)" xlink:href="#az"/><use transform="matrix(0.04938271604938272,0,0,0.04938271604938272,95.55555555555557,0)" xlink:href="#aC"/><use transform="matrix(0.04938271604938272,0,0,0.04938271604938272,105.4320987654321,0)" xlink:href="#aZ"/></g><g id="H"><use transform="matrix(0.04938271604938272,0,0,0.04938271604938272,0,0)" xlink:href="#bp"/><use transform="matrix(0.04938271604938272,0,0,0.04938271604938272,12.790123456790125,0)" xlink:href="#aU"/><use transform="matrix(0.04938271604938272,0,0,0.04938271604938272,22.66666666666667,0)" xlink:href="#aX"/><use transform="matrix(0.04938271604938272,0,0,0.04938271604938272,26.567901234567902,0)" xlink:href="#aX"/></g><path fill="#333" d="M96-169c-40 0-48 33-48 73s9 75 48 75c24 0 41-14 43-38l32 2c-6 37-31 61-74 61-59 0-76-41-82-99-10-93 101-131 147-64 4 7 5 14 7 22l-32 3c-4-21-16-35-41-35" id="bD"/><g id="I"><use transform="matrix(0.04938271604938272,0,0,0.04938271604938272,0,0)" xlink:href="#bz"/><use transform="matrix(0.04938271604938272,0,0,0.04938271604938272,11.851851851851853,0)" xlink:href="#bD"/><use transform="matrix(0.04938271604938272,0,0,0.04938271604938272,20.74074074074074,0)" xlink:href="#bj"/><use transform="matrix(0.04938271604938272,0,0,0.04938271604938272,30.617283950617285,0)" xlink:href="#bk"/><use transform="matrix(0.04938271604938272,0,0,0.04938271604938272,40.49382716049383,0)" xlink:href="#bh"/><use transform="matrix(0.04938271604938272,0,0,0.04938271604938272,44.39506172839506,0)" xlink:href="#bg"/><use transform="matrix(0.04938271604938272,0,0,0.04938271604938272,50.27160493827161,0)" xlink:href="#ai"/><use transform="matrix(0.04938271604938272,0,0,0.04938271604938272,60.14814814814815,0)" xlink:href="#al"/></g><path fill="#333" d="M233-177c-1 41-23 64-60 70L243 0h-38l-65-103H63V0H30v-248c88 3 205-21 203 71zM63-129c60-2 137 13 137-47 0-61-80-42-137-45v92" id="bE"/><g id="J"><use transform="matrix(0.04938271604938272,0,0,0.04938271604938272,0,0)" xlink:href="#bE"/><use transform="matrix(0.04938271604938272,0,0,0.04938271604938272,12.790123456790125,0)" xlink:href="#ai"/><use transform="matrix(0.04938271604938272,0,0,0.04938271604938272,22.66666666666667,0)" xlink:href="#aU"/><use transform="matrix(0.04938271604938272,0,0,0.04938271604938272,32.543209876543216,0)" xlink:href="#ao"/></g><path fill="#fff" d="M212-179c-10-28-35-45-73-45-59 0-87 40-87 99 0 60 29 101 89 101 43 0 62-24 78-52l27 14C228-24 195 4 139 4 59 4 22-46 18-125c-6-104 99-153 187-111 19 9 31 26 39 46" id="bF"/><path fill="#fff" d="M24 0v-261h32V0H24" id="bG"/><g id="K"><use transform="matrix(0.04938271604938272,0,0,0.04938271604938272,0,0)" xlink:href="#bF"/><use transform="matrix(0.04938271604938272,0,0,0.04938271604938272,12.790123456790125,0)" xlink:href="#aK"/><use transform="matrix(0.04938271604938272,0,0,0.04938271604938272,22.66666666666667,0)" xlink:href="#bG"/><use transform="matrix(0.04938271604938272,0,0,0.04938271604938272,26.567901234567902,0)" xlink:href="#bG"/><use transform="matrix(0.04938271604938272,0,0,0.04938271604938272,30.46913580246914,0)" xlink:href="#aJ"/><use transform="matrix(0.04938271604938272,0,0,0.04938271604938272,40.345679012345684,0)" xlink:href="#aI"/></g><g id="L"><use transform="matrix(0.04938271604938272,0,0,0.04938271604938272,0,0)" xlink:href="#bE"/><use transform="matrix(0.04938271604938272,0,0,0.04938271604938272,12.790123456790125,0)" xlink:href="#ai"/><use transform="matrix(0.04938271604938272,0,0,0.04938271604938272,22.66666666666667,0)" xlink:href="#ak"/><use transform="matrix(0.04938271604938272,0,0,0.04938271604938272,27.604938271604947,0)" xlink:href="#bk"/><use transform="matrix(0.04938271604938272,0,0,0.04938271604938272,37.48148148148149,0)" xlink:href="#bg"/><use transform="matrix(0.04938271604938272,0,0,0.04938271604938272,43.35802469135803,0)" xlink:href="#aj"/></g><path fill="#fff" d="M24 0v-248h195v40H76v63h132v40H76v65h150V0H24" id="bH"/><path fill="#fff" d="M128 0H69L1-190h53L99-40l48-150h52" id="bI"/><g id="M"><use transform="matrix(0.04938271604938272,0,0,0.04938271604938272,0,0)" xlink:href="#bH"/><use transform="matrix(0.04938271604938272,0,0,0.04938271604938272,11.851851851851853,0)" xlink:href="#bI"/><use transform="matrix(0.04938271604938272,0,0,0.04938271604938272,21.7283950617284,0)" xlink:href="#aC"/><use transform="matrix(0.04938271604938272,0,0,0.04938271604938272,31.60493827160494,0)" xlink:href="#av"/><use transform="matrix(0.04938271604938272,0,0,0.04938271604938272,42.41975308641976,0)" xlink:href="#az"/></g><g id="N"><use transform="matrix(0.04938271604938272,0,0,0.04938271604938272,0,0)" xlink:href="#aD"/><use transform="matrix(0.04938271604938272,0,0,0.04938271604938272,12.790123456790125,0)" xlink:href="#aC"/><use transform="matrix(0.04938271604938272,0,0,0.04938271604938272,22.66666666666667,0)" xlink:href="#be"/><use transform="matrix(0.04938271604938272,0,0,0.04938271604938272,27.604938271604947,0)" xlink:href="#au"/><use transform="matrix(0.04938271604938272,0,0,0.04938271604938272,37.48148148148149,0)" xlink:href="#bb"/><use transform="matrix(0.04938271604938272,0,0,0.04938271604938272,47.35802469135803,0)" xlink:href="#aw"/></g><g id="O"><use transform="matrix(0.04938271604938272,0,0,0.04938271604938272,0,0)" xlink:href="#bp"/><use transform="matrix(0.04938271604938272,0,0,0.04938271604938272,12.790123456790125,0)" xlink:href="#aU"/><use transform="matrix(0.04938271604938272,0,0,0.04938271604938272,22.66666666666667,0)" xlink:href="#aX"/><use transform="matrix(0.04938271604938272,0,0,0.04938271604938272,26.567901234567902,0)" xlink:href="#aX"/><use transform="matrix(0.04938271604938272,0,0,0.04938271604938272,30.46913580246914,0)" xlink:href="#al"/></g><g id="P"><use transform="matrix(0.04938271604938272,0,0,0.04938271604938272,0,0)" xlink:href="#aq"/><use transform="matrix(0.04938271604938272,0,0,0.04938271604938272,9.876543209876544,0)" xlink:href="#aj"/></g><g id="Q"><use transform="matrix(0.04938271604938272,0,0,0.04938271604938272,0,0)" xlink:href="#bE"/><use transform="matrix(0.04938271604938272,0,0,0.04938271604938272,12.790123456790125,0)" xlink:href="#ai"/><use transform="matrix(0.04938271604938272,0,0,0.04938271604938272,22.66666666666667,0)" xlink:href="#bD"/><use transform="matrix(0.04938271604938272,0,0,0.04938271604938272,31.555555555555557,0)" xlink:href="#aq"/><use transform="matrix(0.04938271604938272,0,0,0.04938271604938272,41.4320987654321,0)" xlink:href="#aj"/><use transform="matrix(0.04938271604938272,0,0,0.04938271604938272,51.308641975308646,0)" xlink:href="#aj"/><use transform="matrix(0.04938271604938272,0,0,0.04938271604938272,61.18518518518519,0)" xlink:href="#ai"/><use transform="matrix(0.04938271604938272,0,0,0.04938271604938272,71.06172839506173,0)" xlink:href="#bD"/><use transform="matrix(0.04938271604938272,0,0,0.04938271604938272,79.95061728395062,0)" xlink:href="#ak"/></g><g id="R"><use transform="matrix(0.05,0,0,0.05,0,0)" xlink:href="#at"/><use transform="matrix(0.05,0,0,0.05,7,0)" xlink:href="#aC"/><use transform="matrix(0.05,0,0,0.05,17,0)" xlink:href="#br"/><use transform="matrix(0.05,0,0,0.05,27,0)" xlink:href="#ay"/><use transform="matrix(0.05,0,0,0.05,37.95,0)" xlink:href="#av"/><use transform="matrix(0.05,0,0,0.05,48.900000000000006,0)" xlink:href="#aC"/><use transform="matrix(0.05,0,0,0.05,58.900000000000006,0)" xlink:href="#br"/><use transform="matrix(0.05,0,0,0.05,68.9,0)" xlink:href="#az"/><use transform="matrix(0.05,0,0,0.05,74.85000000000001,0)" xlink:href="#aw"/></g><path fill="#fff" d="M121-226c-27-7-43 5-38 36h38v33H83V0H34v-157H6v-33h28c-9-59 32-81 87-68v32" id="bJ"/><g id="S"><use transform="matrix(0.05,0,0,0.05,0,0)" xlink:href="#bd"/><use transform="matrix(0.05,0,0,0.05,5,0)" xlink:href="#av"/><use transform="matrix(0.05,0,0,0.05,15.950000000000001,0)" xlink:href="#az"/><use transform="matrix(0.05,0,0,0.05,21.900000000000002,0)" xlink:href="#aC"/><use transform="matrix(0.05,0,0,0.05,31.900000000000002,0)" xlink:href="#at"/><use transform="matrix(0.05,0,0,0.05,38.900000000000006,0)" xlink:href="#bJ"/><use transform="matrix(0.05,0,0,0.05,44.85000000000001,0)" xlink:href="#au"/><use transform="matrix(0.05,0,0,0.05,54.85,0)" xlink:href="#br"/><use transform="matrix(0.05,0,0,0.05,64.85000000000001,0)" xlink:href="#aC"/></g><g id="T"><use transform="matrix(0.04938271604938272,0,0,0.04938271604938272,0,0)" xlink:href="#bp"/><use transform="matrix(0.04938271604938272,0,0,0.04938271604938272,12.790123456790125,0)" xlink:href="#aU"/><use transform="matrix(0.04938271604938272,0,0,0.04938271604938272,22.66666666666667,0)" xlink:href="#aX"/><use transform="matrix(0.04938271604938272,0,0,0.04938271604938272,26.567901234567902,0)" xlink:href="#aX"/><use transform="matrix(0.04938271604938272,0,0,0.04938271604938272,30.46913580246914,0)" xlink:href="#al"/></g><g id="U"><use transform="matrix(0.04938271604938272,0,0,0.04938271604938272,0,0)" xlink:href="#bE"/><use transform="matrix(0.04938271604938272,0,0,0.04938271604938272,12.790123456790125,0)" xlink:href="#ai"/><use transform="matrix(0.04938271604938272,0,0,0.04938271604938272,22.66666666666667,0)" xlink:href="#ak"/><use transform="matrix(0.04938271604938272,0,0,0.04938271604938272,27.604938271604947,0)" xlink:href="#bk"/><use transform="matrix(0.04938271604938272,0,0,0.04938271604938272,37.48148148148149,0)" xlink:href="#bg"/><use transform="matrix(0.04938271604938272,0,0,0.04938271604938272,43.35802469135803,0)" xlink:href="#aj"/><use transform="matrix(0.04938271604938272,0,0,0.04938271604938272,53.23456790123457,0)" xlink:href="#al"/></g><path fill="#333" d="M143 4C61 4 22-44 18-125c-5-107 100-154 193-111 17 8 29 25 37 43l-32 9c-13-25-37-40-76-40-61 0-88 39-88 99 0 61 29 100 91 101 35 0 62-11 79-27v-45h-74v-28h105v86C228-13 192 4 143 4" id="bK"/><g id="V"><use transform="matrix(0.04938271604938272,0,0,0.04938271604938272,0,0)" xlink:href="#bK"/><use transform="matrix(0.04938271604938272,0,0,0.04938271604938272,13.827160493827162,0)" xlink:href="#ai"/><use transform="matrix(0.04938271604938272,0,0,0.04938271604938272,23.703703703703706,0)" xlink:href="#aj"/><use transform="matrix(0.04938271604938272,0,0,0.04938271604938272,33.580246913580254,0)" xlink:href="#ai"/><use transform="matrix(0.04938271604938272,0,0,0.04938271604938272,43.4567901234568,0)" xlink:href="#bg"/><use transform="matrix(0.04938271604938272,0,0,0.04938271604938272,49.33333333333334,0)" xlink:href="#aU"/><use transform="matrix(0.04938271604938272,0,0,0.04938271604938272,59.209876543209894,0)" xlink:href="#ak"/><use transform="matrix(0.04938271604938272,0,0,0.04938271604938272,64.14814814814815,0)" xlink:href="#ai"/><use transform="matrix(0.04938271604938272,0,0,0.04938271604938272,74.0246913580247,0)" xlink:href="#al"/></g><path fill="#333" d="M190 0L58-211 59 0H30v-248h39L202-35l-2-213h31V0h-41" id="bL"/><path fill="#333" d="M206 0h-36l-40-164L89 0H53L-1-190h32L70-26l43-164h34l41 164 42-164h31" id="bM"/><g id="W"><use transform="matrix(0.04938271604938272,0,0,0.04938271604938272,0,0)" xlink:href="#bL"/><use transform="matrix(0.04938271604938272,0,0,0.04938271604938272,12.790123456790125,0)" xlink:href="#ai"/><use transform="matrix(0.04938271604938272,0,0,0.04938271604938272,22.66666666666667,0)" xlink:href="#bM"/></g><path fill="#fff" d="M205 0l-28-72H64L36 0H1l101-248h38L239 0h-34zm-38-99l-47-123c-12 45-31 82-46 123h93" id="bN"/><path fill="#fff" d="M140-251c81 0 123 46 123 126C263-53 228-8 163 1c7 30 30 48 69 40v23c-55 16-95-15-103-61C56-3 17-48 17-125c0-80 42-126 123-126zm0 227c63 0 89-41 89-101s-29-99-89-99c-61 0-89 39-89 99S79-25 140-24" id="bO"/><path fill="#fff" d="M30-248c87 1 191-15 191 75 0 78-77 80-158 76V0H30v-248zm33 125c57 0 124 11 124-50 0-59-68-47-124-48v98" id="bP"/><g id="X"><use transform="matrix(0.04938271604938272,0,0,0.04938271604938272,0,0)" xlink:href="#bN"/><use transform="matrix(0.04938271604938272,0,0,0.04938271604938272,11.851851851851853,0)" xlink:href="#bn"/><use transform="matrix(0.04938271604938272,0,0,0.04938271604938272,26.617283950617285,0)" xlink:href="#bO"/><use transform="matrix(0.04938271604938272,0,0,0.04938271604938272,40.44444444444444,0)" xlink:href="#bP"/></g><path fill="#fff" d="M160-131c35 5 61 23 61 61C221 17 115-2 30 0v-248c76 3 177-17 177 60 0 33-19 50-47 57zm-97-11c50-1 110 9 110-42 0-47-63-36-110-37v79zm0 115c55-2 124 14 124-45 0-56-70-42-124-44v89" id="bQ"/><path fill="#fff" d="M143 0L79-87 56-68V0H24v-261h32v163l83-92h37l-77 82L181 0h-38" id="bR"/><g id="Y"><use transform="matrix(0.04938271604938272,0,0,0.04938271604938272,0,0)" xlink:href="#bQ"/><use transform="matrix(0.04938271604938272,0,0,0.04938271604938272,11.851851851851853,0)" xlink:href="#aI"/><use transform="matrix(0.04938271604938272,0,0,0.04938271604938272,17.728395061728396,0)" xlink:href="#aS"/><use transform="matrix(0.04938271604938272,0,0,0.04938271604938272,27.60493827160494,0)" xlink:href="#bR"/><use transform="matrix(0.04938271604938272,0,0,0.04938271604938272,36.49382716049383,0)" xlink:href="#aJ"/><use transform="matrix(0.04938271604938272,0,0,0.04938271604938272,46.370370370370374,0)" xlink:href="#aI"/></g><path fill="#333" d="M101-234c-31-9-42 10-38 44h38v23H63V0H32v-167H5v-23h27c-7-52 17-82 69-68v24" id="bS"/><g id="Z"><use transform="matrix(0.04938271604938272,0,0,0.04938271604938272,0,0)" xlink:href="#bL"/><use transform="matrix(0.04938271604938272,0,0,0.04938271604938272,12.790123456790125,0)" xlink:href="#aq"/><use transform="matrix(0.04938271604938272,0,0,0.04938271604938272,22.66666666666667,0)" xlink:href="#ak"/><use transform="matrix(0.04938271604938272,0,0,0.04938271604938272,27.604938271604947,0)" xlink:href="#bh"/><use transform="matrix(0.04938271604938272,0,0,0.04938271604938272,31.506172839506174,0)" xlink:href="#bS"/><use transform="matrix(0.04938271604938272,0,0,0.04938271604938272,36.44444444444445,0)" xlink:href="#bh"/><use transform="matrix(0.04938271604938272,0,0,0.04938271604938272,40.345679012345684,0)" xlink:href="#ai"/><use transform="matrix(0.04938271604938272,0,0,0.04938271604938272,50.22222222222223,0)" xlink:href="#al"/></g><g id="aa"><use transform="matrix(0.04938271604938272,0,0,0.04938271604938272,0,0)" xlink:href="#bp"/><use transform="matrix(0.04938271604938272,0,0,0.04938271604938272,12.790123456790125,0)" xlink:href="#aX"/><use transform="matrix(0.04938271604938272,0,0,0.04938271604938272,16.69135802469136,0)" xlink:href="#aq"/><use transform="matrix(0.04938271604938272,0,0,0.04938271604938272,26.567901234567902,0)" xlink:href="#al"/><use transform="matrix(0.04938271604938272,0,0,0.04938271604938272,35.4567901234568,0)" xlink:href="#ai"/></g><g id="ab"><use transform="matrix(0.04938271604938272,0,0,0.04938271604938272,0,0)" xlink:href="#bE"/><use transform="matrix(0.04938271604938272,0,0,0.04938271604938272,12.790123456790125,0)" xlink:href="#ai"/><use transform="matrix(0.04938271604938272,0,0,0.04938271604938272,22.66666666666667,0)" xlink:href="#bj"/><use transform="matrix(0.04938271604938272,0,0,0.04938271604938272,32.543209876543216,0)" xlink:href="#bk"/><use transform="matrix(0.04938271604938272,0,0,0.04938271604938272,42.41975308641976,0)" xlink:href="#ai"/><use transform="matrix(0.04938271604938272,0,0,0.04938271604938272,52.2962962962963,0)" xlink:href="#al"/><use transform="matrix(0.04938271604938272,0,0,0.04938271604938272,61.18518518518519,0)" xlink:href="#ak"/></g><g id="ac"><use transform="matrix(0.04938271604938272,0,0,0.04938271604938272,0,0)" xlink:href="#bE"/><use transform="matrix(0.04938271604938272,0,0,0.04938271604938272,12.790123456790125,0)" xlink:href="#ai"/><use transform="matrix(0.04938271604938272,0,0,0.04938271604938272,22.66666666666667,0)" xlink:href="#al"/><use transform="matrix(0.04938271604938272,0,0,0.04938271604938272,31.555555555555557,0)" xlink:href="#aW"/><use transform="matrix(0.04938271604938272,0,0,0.04938271604938272,41.4320987654321,0)" xlink:href="#aq"/><use transform="matrix(0.04938271604938272,0,0,0.04938271604938272,51.308641975308646,0)" xlink:href="#aj"/><use transform="matrix(0.04938271604938272,0,0,0.04938271604938272,61.18518518518519,0)" xlink:href="#al"/><use transform="matrix(0.04938271604938272,0,0,0.04938271604938272,70.07407407407408,0)" xlink:href="#ai"/></g><g id="ad"><use transform="matrix(0.04938271604938272,0,0,0.04938271604938272,0,0)" xlink:href="#bE"/><use transform="matrix(0.04938271604938272,0,0,0.04938271604938272,12.790123456790125,0)" xlink:href="#ai"/><use transform="matrix(0.04938271604938272,0,0,0.04938271604938272,22.66666666666667,0)" xlink:href="#bj"/><use transform="matrix(0.04938271604938272,0,0,0.04938271604938272,32.543209876543216,0)" xlink:href="#bk"/><use transform="matrix(0.04938271604938272,0,0,0.04938271604938272,42.41975308641976,0)" xlink:href="#ai"/><use transform="matrix(0.04938271604938272,0,0,0.04938271604938272,52.2962962962963,0)" xlink:href="#al"/><use transform="matrix(0.04938271604938272,0,0,0.04938271604938272,61.18518518518519,0)" xlink:href="#ak"/></g><g id="ae"><use transform="matrix(0.04938271604938272,0,0,0.04938271604938272,0,0)" xlink:href="#ag"/><use transform="matrix(0.04938271604938272,0,0,0.04938271604938272,11.851851851851853,0)" xlink:href="#ah"/><use transform="matrix(0.04938271604938272,0,0,0.04938271604938272,20.74074074074074,0)" xlink:href="#ai"/><use transform="matrix(0.04938271604938272,0,0,0.04938271604938272,30.617283950617285,0)" xlink:href="#aj"/><use transform="matrix(0.04938271604938272,0,0,0.04938271604938272,40.49382716049383,0)" xlink:href="#ak"/><use transform="matrix(0.04938271604938272,0,0,0.04938271604938272,45.4320987654321,0)" xlink:href="#al"/></g><path fill="#333" d="M30 0v-248h33v221h125V0H30" id="bT"/><path fill="#333" d="M106-169C34-169 62-67 57 0H25v-261h32l-1 103c12-21 28-36 61-36 89 0 53 116 60 194h-32v-121c2-32-8-49-39-48" id="bU"/><g id="af"><use transform="matrix(0.04938271604938272,0,0,0.04938271604938272,0,0)" xlink:href="#bT"/><use transform="matrix(0.04938271604938272,0,0,0.04938271604938272,9.876543209876544,0)" xlink:href="#aU"/><use transform="matrix(0.04938271604938272,0,0,0.04938271604938272,19.75308641975309,0)" xlink:href="#bk"/><use transform="matrix(0.04938271604938272,0,0,0.04938271604938272,29.629629629629633,0)" xlink:href="#aj"/><use transform="matrix(0.04938271604938272,0,0,0.04938271604938272,39.50617283950618,0)" xlink:href="#bD"/><use transform="matrix(0.04938271604938272,0,0,0.04938271604938272,48.39506172839506,0)" xlink:href="#bU"/><use transform="matrix(0.04938271604938272,0,0,0.04938271604938272,58.27160493827161,0)" xlink:href="#ai"/><use transform="matrix(0.04938271604938272,0,0,0.04938271604938272,68.14814814814815,0)" xlink:href="#al"/></g></defs></g></svg>