<svg id="Layer_1" enable-background="new 0 0 512 512" height="512" viewBox="0 0 512 512" width="512" xmlns="http://www.w3.org/2000/svg"><g><g><g><path d="m361.576.401c-35.366-6.253-76.944 62.037-87.73 123.271-2.812 15.989-3.245 29.906-1.731 41.867 1.422 11.229 4.574 20.738 9.097 28.587l51.036 13.033 52.271-12.775.175-176.594c-6.347-9.509-14.094-15.803-23.118-17.389z" fill="#fef5e6"/><path d="m397.416 165.539h-125.301c1.422 11.229 4.574 20.738 9.097 28.588l34.501.083 68.806.175c5.119-7.851 9.487-17.422 12.897-28.846z" fill="#fbebcf"/></g><g><path d="m309.273 165.539c.587 11.136 2.833 20.676 6.439 28.67l68.806.175c5.12-7.85 9.488-17.42 12.898-28.845 1.772-5.913 3.276-12.321 4.491-19.244 8.035-45.616 1.339-100.752-17.214-128.505-30.875 5.676-63.964 63.397-73.164 115.648-2.091 11.899-2.781 22.582-2.256 32.101z" fill="#f3bfc6"/><path d="m397.416 165.539h-88.142c.587 11.136 2.833 20.676 6.439 28.67l68.806.175c5.119-7.85 9.487-17.421 12.897-28.845z" fill="#eda1ab"/></g></g><g><g><path d="m237.315 123.672c-10.786-61.234-52.364-129.525-87.73-123.271-9.024 1.586-16.771 7.881-23.117 17.39l.175 176.594 52.271 12.775 51.036-13.033c4.522-7.85 7.675-17.358 9.097-28.587 1.513-11.962 1.081-25.879-1.732-41.868z" fill="#fef5e6"/><path d="m113.745 165.539h125.301c-1.422 11.229-4.574 20.738-9.097 28.588l-34.501.083-68.806.175c-5.119-7.851-9.487-17.422-12.897-28.846z" fill="#fbebcf"/></g><g><path d="m201.887 165.539c-.587 11.136-2.833 20.676-6.439 28.67l-68.806.175c-5.12-7.85-9.488-17.42-12.898-28.845-1.772-5.913-3.276-12.321-4.491-19.244-8.035-45.616-1.339-100.752 17.214-128.505 30.875 5.676 63.964 63.397 73.164 115.648 2.091 11.899 2.781 22.582 2.256 32.101z" fill="#f3bfc6"/><path d="m113.745 165.539h88.142c-.587 11.136-2.833 20.676-6.439 28.67l-68.806.175c-5.119-7.85-9.487-17.421-12.897-28.845z" fill="#eda1ab"/></g></g><g><path d="m416.124 501.543c-6.16 1.03-13.238 2.091-21.314 3.121-30.648 3.904-75.585 7.335-138.807 7.335-79.87 0-130.565-5.481-160.121-10.456-18.327-3.08-30.009-21.273-25.239-39.271 14.072-53.116 18.049-99.361 18.688-131.091l166.673-44.092 133.676 35.366 32.997 8.726c.639 31.73 4.615 77.974 18.688 131.091 4.768 17.998-6.914 36.191-25.241 39.271z" fill="#8e9caf"/><path d="m416.124 501.543c-6.16 1.03-13.238 2.091-21.314 3.121 12.754-7.747 19.625-23.313 15.535-38.735-15.514-58.566-19.872-99.763-20.573-134.748-.051-2.946-.093-5.862-.093-8.726l32.997 8.726c.639 31.73 4.615 77.974 18.688 131.091 4.769 17.998-6.913 36.191-25.24 39.271z" fill="#718299"/><path d="m422.253 331.182h-333.346c.556-28.093-1.504-44.792-1.504-44.792l168.177-45.658 135.026 36.654 33.151 9.004c0-.001-2.06 16.699-1.504 44.792z" fill="#f6ca8e"/><path d="m422.253 331.182h-32.904c-.453-22.839.649-44.164 1.257-53.796l33.151 9.004c0-.001-2.06 16.699-1.504 44.792z" fill="#f3be77"/><path d="m462.049 240.732c0 25.6-20.717 46.358-46.276 46.358h-320.386c-12.785 0-24.354-5.192-32.729-13.578-8.376-8.386-13.557-19.986-13.557-32.78 0-25.6 20.727-46.348 46.286-46.348h320.387c12.784 0 24.343 5.182 32.718 13.578 8.375 8.385 13.557 19.975 13.557 32.77z" fill="#8e9caf"/><path d="m462.049 240.732c0 25.6-20.717 46.358-46.276 46.358h-31.101c13.382-11.002 21.912-27.681 21.912-46.358 0-18.667-8.52-35.335-21.891-46.348h31.081c12.784 0 24.343 5.182 32.718 13.578 8.375 8.385 13.557 19.975 13.557 32.77z" fill="#718299"/></g><path d="m32.203 183.869c-12.869-2.273-5.093-14.477-12.592-25.179-7.498-10.702-21.633-7.574-19.368-20.437s14.479-5.082 25.179-12.57 7.562-21.62 20.431-19.348c12.869 2.273 5.093 14.477 12.592 25.179s21.633 7.574 19.368 20.437-17.001 3.139-25.612 12.957c-9.816 11.194-7.129 21.233-19.998 18.961z" fill="#b0ade2"/><path d="m479.797 103.144c12.869-2.273 5.093-14.477 12.592-25.179 7.498-10.702 21.633-7.574 19.368-20.437s-14.479-5.082-25.179-12.57c-10.701-7.488-7.562-21.62-20.431-19.347s-5.093 14.477-12.592 25.179c-7.498 10.702-21.633 7.574-19.368 20.437s17.001 3.139 25.612 12.957c9.816 11.193 7.129 21.232 19.998 18.96z" fill="#e26e7e"/><path d="m414.237 451.526c-20.425-3.607-8.084-22.977-19.985-39.963s-34.335-12.022-30.74-32.437c3.594-20.415 22.98-8.065 39.963-19.95s12.002-34.314 32.427-30.707 8.084 22.977 19.985 39.963 34.335 12.022 30.74 32.437c-3.594 20.415-26.983 4.982-40.649 20.565-15.582 17.765-11.317 33.699-31.741 30.092z" fill="#a7d4f1"/><g><g fill="#eda1ab"><ellipse cx="176.021" cy="454.353" rx="29.355" ry="23.377"/><ellipse cx="335.134" cy="454.353" rx="29.355" ry="23.377"/></g><g fill="#4e5660"><path d="m193.129 412.35c-4.142 0-7.5 3.358-7.5 7.5v12c0 4.142 3.358 7.5 7.5 7.5s7.5-3.358 7.5-7.5v-12c0-4.142-3.358-7.5-7.5-7.5z"/><path d="m318.026 412.35c-4.142 0-7.5 3.358-7.5 7.5v12c0 4.142 3.358 7.5 7.5 7.5s7.5-3.358 7.5-7.5v-12c0-4.142-3.357-7.5-7.5-7.5z"/><path d="m276.97 425.838c-3.123-2.721-7.86-2.396-10.582.727-2.729 3.132-6.669 4.928-10.81 4.928s-8.081-1.796-10.81-4.928c-2.722-3.123-7.459-3.447-10.582-.727-3.123 2.722-3.448 7.459-.727 10.582 5.579 6.401 13.641 10.073 22.119 10.073s16.54-3.671 22.119-10.073c2.721-3.123 2.395-7.86-.727-10.582z"/></g></g></g></svg>