<?xml version="1.0" encoding="iso-8859-1"?>
<!-- Generator: Adobe Illustrator 19.0.0, SVG Export Plug-In . SVG Version: 6.00 Build 0)  -->
<svg version="1.1" id="Capa_1" xmlns="http://www.w3.org/2000/svg" xmlns:xlink="http://www.w3.org/1999/xlink" x="0px" y="0px"
	 viewBox="0 0 464 464" style="enable-background:new 0 0 464 464;" xml:space="preserve">
<path style="fill:#3570AB;" d="M102.415,200h224c8.837,0,16,7.163,16,16l0,0c0,8.837-7.163,16-16,16h-224c-8.837,0-16-7.163-16-16
	l0,0C86.415,207.163,93.578,200,102.415,200z"/>
<path style="fill:#2F65A3;" d="M326.415,200h-48c8.837,0,16,7.163,16,16s-7.163,16-16,16h48c8.837,0,16-7.163,16-16
	S335.251,200,326.415,200z"/>
<path style="fill:#3570AB;" d="M134.415,232h160v232h-160V232z"/>
<path style="fill:#2F65A3;" d="M238.415,232h56v232h-56V232z"/>
<path style="fill:#DE4C3C;" d="M134.415,232h160v48h-160V232z"/>
<path style="fill:#CF4031;" d="M238.415,232h56v48h-56V232z"/>
<path style="fill:#DEDEDE;" d="M150.415,200h40V36c0-19.882-16.118-36-36-36s-36,16.118-36,36
	c0.001,13.292,1.455,26.544,4.336,39.52L150.415,200z"/>
<path style="fill:#C7C7C7;" d="M230.415,56v144h40l19.56-88c-7.346-0.012-14.321-3.225-19.104-8.8L230.415,56z"/>
<path style="fill:#DEDEDE;" d="M315.167,67.504c-8.251-9.21-18.69-16.193-30.352-20.304c-19.368-6.648-40-5.512-54.4,8.8
	l40.456,47.2c4.783,5.575,11.758,8.788,19.104,8.8h7.584c3.206,0.002,6.383-0.609,9.36-1.8c13.494-6.541,19.13-22.783,12.589-36.276
	C318.375,71.587,316.913,69.425,315.167,67.504z"/>
<path style="fill:#FDB62F;" d="M326.415,32c17.673,0,32-14.327,32-32c0,17.673,14.327,32,32,32c-17.673,0-32,14.327-32,32
	C358.415,46.327,344.088,32,326.415,32z"/>
<path style="fill:#DEDEDE;" d="M79.759,52.44C68.5,35.503,73.069,12.649,89.975,1.344l8.88,13.312
	c-9.569,6.391-12.156,19.323-5.784,28.904L79.759,52.44z"/>
<g>
</g>
<g>
</g>
<g>
</g>
<g>
</g>
<g>
</g>
<g>
</g>
<g>
</g>
<g>
</g>
<g>
</g>
<g>
</g>
<g>
</g>
<g>
</g>
<g>
</g>
<g>
</g>
<g>
</g>
</svg>
