<?xml version="1.0"?>
<svg xmlns="http://www.w3.org/2000/svg" xmlns:xlink="http://www.w3.org/1999/xlink" viewBox="0 0 512 512" width="512" height="512"><defs><linearGradient id="linear-gradient" x1="95.272" y1="496.728" x2="452.188" y2="139.812" gradientUnits="userSpaceOnUse"><stop offset="0" stop-color="#41dfd0"/><stop offset="1" stop-color="#ee83ef"/></linearGradient></defs><g id="gradient"><path d="M152.97,259.711a173.048,173.048,0,0,0-47.321,89.513l-3.5-4.2a8,8,0,0,0-13.5,1.969L75.726,377.139A144.217,144.217,0,0,0,64,434.268v9.589a52.247,52.247,0,0,0,77.483,45.564A41.968,41.968,0,0,0,164.005,496H296a8,8,0,0,0,8-8,59.405,59.405,0,0,0-28.186-50.754,96.94,96.94,0,0,0,50.654-46.216l17.71,82.646a8,8,0,0,0,2.165,3.981l16,16A8,8,0,0,0,368,496h80a8,8,0,0,0,8-8V464a8,8,0,0,0-3.563-6.656l-20.986-13.991-15.5-116.247A114.69,114.69,0,0,0,424,284.775V203.313l18.956-18.955a36.362,36.362,0,0,0,1.649-49.529l-16.394-18.736a82.188,82.188,0,0,0-83.947-25.074l-13.2-17.608a117.627,117.627,0,0,0-10.892-12.557l-5.113-5.115A117.279,117.279,0,0,0,260.584,24.9L225.94,16.239a8,8,0,0,0-9.293,10.912l13.214,30.832c.362.845.743,1.68,1.124,2.515-1.19,0-2.38.013-3.566.054l-35.69,1.208A8,8,0,0,0,185.8,74.809l21.188,26a117.651,117.651,0,0,0,45.676,34.117,116.723,116.723,0,0,0,32.72,8.4A82.286,82.286,0,0,0,280,172.569V200.76l-12.793,1.28A177.41,177.41,0,0,0,159.7,252.982Zm-62.384,209.7A35.906,35.906,0,0,1,80,443.857v-9.589a128.318,128.318,0,0,1,10.432-50.827l7.779-18.15,4.606,5.527A175.615,175.615,0,0,0,124.5,469.361c.011.021.024.042.035.064.027.048.052.1.078.144l2.686,4.835c.6,1.08,1.259,2.113,1.943,3.125A36.414,36.414,0,0,1,90.586,469.414ZM416.07,449.058a8,8,0,0,0,3.492,5.6L440,468.281V480H416V464a8,8,0,0,0-4.422-7.155l-12.423-6.211-14.45-79.481a114.879,114.879,0,0,0,18.287-20.179ZM219.391,90.706l-11-13.5,19.57-.663a101.464,101.464,0,0,1,12.153.331,117.563,117.563,0,0,0,24.272,26.48A116.394,116.394,0,0,0,297.306,121.9c-1.464,1.922-2.814,3.922-4.1,5.962a100.827,100.827,0,0,1-34.374-7.7A101.59,101.59,0,0,1,219.391,90.706ZM171.014,264.3A161.369,161.369,0,0,1,268.8,217.96l20-2A8,8,0,0,0,296,208V172.569a66.288,66.288,0,0,1,9.441-34.09l.548-.911a66.218,66.218,0,0,1,11.126-13.876,8,8,0,0,0-3.581-13.554l-.462-.116a100.539,100.539,0,0,1-38.693-19.164,101.6,101.6,0,0,1-29.812-39.177l-6.86-16.008,19,4.749A101.263,101.263,0,0,1,303.74,67.053l5.113,5.114a101.473,101.473,0,0,1,9.4,10.844l16.613,22.15a8,8,0,0,0,9.1,2.733,66.189,66.189,0,0,1,72.2,18.734l16.394,18.736A20.208,20.208,0,0,1,437.5,160H427.313l-5.656-5.657a8,8,0,0,0-11.314,11.314l8,8A8,8,0,0,0,424,176h4.686l-17.007,17.007-8.262,2.754A68.348,68.348,0,0,1,340.8,185.6a8,8,0,0,0-9.6,12.8A84.293,84.293,0,0,0,408,211.089v73.686a98.1,98.1,0,0,1-37,76.978,8,8,0,0,0-2.873,7.678l16,88a8,8,0,0,0,4.293,5.724L400,468.944V480H371.313l-11.985-11.986-23.506-109.69a8,8,0,0,0-15.741.544,80.755,80.755,0,0,1-56.562,65.724L256,426.847V416a72.081,72.081,0,0,0-72-72,8,8,0,0,0,0,16,56.063,56.063,0,0,1,56,56v15.647l-1.176.353H216a8,8,0,0,0,0,16h44.223a8.041,8.041,0,0,1,3.578.845A43.5,43.5,0,0,1,287.277,480H164.005a26.008,26.008,0,0,1-22.724-13.367l-1.9-3.416-.362-3.387a39.5,39.5,0,0,1,17.416-37.174,8,8,0,1,0-8.875-13.312,55.507,55.507,0,0,0-20.834,25.677,159.887,159.887,0,0,1-7.7-66.055l.005-.054c.255-2.768.572-5.538.968-8.31l.2-1.409a156.846,156.846,0,0,1,44.087-88.168ZM353,136a15,15,0,1,1,15,15A15,15,0,0,1,353,136Z" style="fill:url(#linear-gradient)"/></g></svg>
